<svg width="60" height="60" viewBox="0 0 60 60" fill="none" xmlns="http://www.w3.org/2000/svg">
<path d="M30.1429 0.285706C13.8132 0.285706 0.571442 13.5274 0.571442 29.8571C0.571442 46.1868 13.8132 59.4286 30.1429 59.4286C46.4726 59.4286 59.7143 46.1868 59.7143 29.8571C59.7143 13.5274 46.4726 0.285706 30.1429 0.285706Z" fill="#FFB61C"/>
<path d="M30.1429 0.655351C46.2727 0.655351 59.3447 13.7273 59.3447 29.8571C59.3447 45.987 46.2727 59.0589 30.1429 59.0589C14.013 59.0589 0.941087 45.987 0.941087 29.8571C0.941087 13.7273 14.013 0.655351 30.1429 0.655351Z" fill="#FCD116"/>
<path d="M33.6186 4.94222C33.5503 6.24817 32.4361 7.25138 31.1302 7.183C29.8243 7.11462 28.821 6.00051 28.8894 4.69457C28.9578 3.38862 30.0719 2.3854 31.3779 2.45379C32.6837 2.52217 33.6869 3.63627 33.6186 4.94222Z" fill="#FFB500"/>
<path d="M30.997 55.0198C30.9286 56.3258 29.8145 57.329 28.5086 57.2606C27.2026 57.1922 26.1994 56.0781 26.2678 54.7722C26.3362 53.4662 27.4503 52.463 28.7562 52.5314C30.0622 52.5998 31.0654 53.7139 30.997 55.0198Z" fill="#FFB500"/>
<path d="M55.0444 31.9068C53.7367 31.9234 52.6633 30.8769 52.6466 29.5692C52.63 28.2615 53.6766 27.1881 54.9842 27.1714C56.2919 27.1548 57.3654 28.2014 57.382 29.509C57.3985 30.8166 56.3519 31.8902 55.0444 31.9068Z" fill="#FFB500"/>
<path d="M4.90219 32.5431C3.59452 32.5597 2.52108 31.5131 2.50444 30.2055C2.48781 28.8978 3.53439 27.8243 4.84206 27.8077C6.14974 27.7911 7.22318 28.8377 7.23981 30.1453C7.25632 31.453 6.20974 32.5265 4.90219 32.5431Z" fill="#FFB500"/>
<path d="M52.987 40.0183C51.7461 39.6055 51.0749 38.2649 51.4876 37.024C51.9004 35.7831 53.241 35.1119 54.4819 35.5246C55.7228 35.9374 56.394 37.278 55.9813 38.5189C55.5685 39.7598 54.2279 40.431 52.987 40.0183Z" fill="#FFB500"/>
<path d="M5.40453 24.1898C4.16364 23.777 3.49237 22.4364 3.90513 21.1955C4.3179 19.9546 5.65847 19.2834 6.89936 19.6961C8.14025 20.1089 8.81153 21.4495 8.39876 22.6904C7.98587 23.9313 6.64542 24.6025 5.40453 24.1898Z" fill="#FFB500"/>
<path d="M51.7697 16.5951C50.7562 17.4216 49.2647 17.2701 48.4382 16.2566C47.6117 15.2432 47.7632 13.7517 48.7767 12.9251C49.7901 12.0986 51.2816 12.2502 52.1082 13.2636C52.9347 14.2771 52.7831 15.7686 51.7697 16.5951Z" fill="#FFB500"/>
<path d="M11.4845 46.7894C10.4711 47.6159 8.97959 47.4643 8.15307 46.4509C7.32655 45.4375 7.4781 43.9459 8.49154 43.1194C9.50497 42.2929 10.9965 42.4445 11.823 43.4579C12.6495 44.4713 12.498 45.9628 11.4845 46.7894Z" fill="#FFB500"/>
<path d="M54.3059 23.4759C53.0776 23.9247 51.7181 23.2928 51.2692 22.0646C50.8203 20.8363 51.4523 19.4767 52.6805 19.0278C53.9088 18.579 55.2684 19.2109 55.7172 20.4391C56.1661 21.6675 55.5343 23.027 54.3059 23.4759Z" fill="#FFB500"/>
<path d="M7.20579 40.6867C5.97747 41.1356 4.61792 40.5036 4.16905 39.2754C3.72018 38.0471 4.35215 36.6875 5.58035 36.2387C6.80867 35.7898 8.16822 36.4218 8.61709 37.65C9.06596 38.8783 8.43399 40.2378 7.20579 40.6867Z" fill="#FFB500"/>
<path d="M33.9336 54.7237C33.6059 53.4577 34.3665 52.1658 35.6326 51.8381C36.8986 51.5104 38.1905 52.271 38.5182 53.5371C38.8459 54.8031 38.0853 56.095 36.8192 56.4228C35.5532 56.7504 34.2613 55.9898 33.9336 54.7237Z" fill="#FFB500"/>
<path d="M21.3682 6.17732C21.0406 4.91129 21.8012 3.61939 23.0672 3.29164C24.3332 2.96401 25.6251 3.72461 25.9529 4.99064C26.2806 6.25667 25.5199 7.54857 24.2539 7.87632C22.9878 8.20407 21.6959 7.44335 21.3682 6.17732Z" fill="#FFB500"/>
<path d="M12.9016 48.4005C13.692 47.3587 15.1774 47.1549 16.2192 47.9454C17.2609 48.7358 17.4647 50.2211 16.6743 51.2629C15.8839 52.3047 14.3986 52.5085 13.3568 51.718C12.315 50.9276 12.1112 49.4423 12.9016 48.4005Z" fill="#FFB500"/>
<path d="M43.2121 8.45148C44.0025 7.4097 45.4879 7.20591 46.5297 7.99633C47.5714 8.78675 47.7752 10.2721 46.9848 11.3139C46.1944 12.3556 44.709 12.5594 43.6673 11.769C42.6254 10.9786 42.4216 9.49338 43.2121 8.45148Z" fill="#FFB500"/>
<path d="M30.1429 9.03661C18.6444 9.03661 9.32211 18.3588 9.32211 29.8572C9.32211 41.3557 18.6445 50.678 30.1429 50.678C41.6412 50.678 50.9636 41.3557 50.9636 29.8572C50.9636 18.3588 41.6413 9.03661 30.1429 9.03661Z" fill="#F39C12"/>
<path d="M30.1429 9.12459C41.5937 9.12459 50.8756 18.4063 50.8756 29.8571C50.8756 41.3079 41.5937 50.5899 30.1429 50.5899C18.6921 50.5899 9.41035 41.3079 9.41035 29.8571C9.41035 18.4063 18.6921 9.12459 30.1429 9.12459Z" fill="#FFB61C"/>
<path d="M30.1429 8.3125C18.2481 8.3125 8.59798 17.9624 8.59798 29.8571C8.59798 41.7519 18.2482 51.402 30.1429 51.402C42.0376 51.402 51.6877 41.7519 51.6877 29.8571C51.6877 17.9624 42.0376 8.3125 30.1429 8.3125ZM30.1429 9.01654C41.6571 9.01654 50.9837 18.3429 50.9837 29.8571C50.9837 41.3714 41.6571 50.698 30.1429 50.698C18.6287 50.698 9.30203 41.3714 9.30203 29.8571C9.30215 18.3429 18.6287 9.01654 30.1429 9.01654Z" fill="#F39C12"/>
<path d="M28.489 17.1757V20.8101C25.9055 21.8723 24.375 24.6545 24.8469 27.4654C25.3449 30.4315 27.9715 32.6296 30.9583 32.5082C31.6986 32.6006 32.3177 33.1724 32.4624 34.0338C32.6291 35.0266 32.05 35.9222 31.187 36.167C30.324 36.4119 29.4554 35.9827 29.1082 35.0505L25.1667 36.5189C25.7646 38.1236 27.0002 39.3458 28.4891 39.9703V43.6469H32.6952V40.0976C35.4432 39.1243 37.0988 36.2461 36.6105 33.3375C36.1126 30.3718 33.4866 28.1741 30.5004 28.2948C29.7594 28.203 29.1398 27.6309 28.995 26.7687C28.8283 25.776 29.4074 24.8804 30.2704 24.6355C31.1334 24.3907 32.0018 24.8202 32.3491 25.7525L36.2908 24.284C35.6568 22.5823 34.3053 21.3105 32.6952 20.7258V17.1755L28.489 17.1757Z" fill="#E6A419"/>
<path d="M27.7826 16.5007V20.1831C25.1937 21.2908 23.6656 24.0943 24.142 26.9315C24.6498 29.9564 27.3288 32.1989 30.3775 32.075L30.3575 32.074C31.0452 32.1599 31.6206 32.6853 31.7573 33.4996C31.9144 34.4355 31.3704 35.2692 30.5683 35.4968C29.7614 35.7256 28.9642 35.3361 28.6356 34.4542L28.5934 34.3409L24.4253 35.8939L24.4677 36.007C25.0674 37.6167 26.2975 38.8461 27.7824 39.4924V43.2136H32.2302V39.6204C34.9837 38.5986 36.6366 35.699 36.1438 32.7635C35.6371 29.7456 32.9693 27.5084 29.9293 27.621C29.2409 27.5358 28.6651 27.01 28.5283 26.1949C28.3712 25.259 28.9154 24.4256 29.7175 24.198C30.5243 23.9691 31.3214 24.3589 31.65 25.2408L31.6924 25.3541L35.8602 23.8011L35.8181 23.688C35.1821 21.9808 33.8368 20.7014 32.2302 20.0921V16.5007H27.7826Z" fill="#FFB61C"/>
<path d="M28.0242 16.7426H31.9887V20.2566L32.0682 20.2855C33.6096 20.8451 34.905 22.051 35.5432 23.6613L31.8246 25.0467C31.4301 24.1429 30.5343 23.7151 29.6517 23.9655C28.7279 24.2276 28.1139 25.1853 28.2901 26.2349C28.4427 27.1438 29.1061 27.7625 29.8997 27.8607L29.9096 27.8619L29.9195 27.8617C32.8437 27.7435 35.4174 29.8965 35.9055 32.8034C36.3843 35.6552 34.7606 38.4763 32.0689 39.4295L31.9886 39.4581V42.972H28.0241V39.336L27.9499 39.3049C26.5263 38.7079 25.3432 37.5499 24.7422 36.0335L28.4611 34.6481C28.8555 35.552 29.7516 35.9796 30.6342 35.7293C31.5581 35.4672 32.1721 34.5092 31.9959 33.4597C31.8433 32.5513 31.1804 31.9333 30.3876 31.8343L30.3777 31.8329L30.3676 31.8334C27.4429 31.9523 24.8685 29.7986 24.3804 26.8913C23.9177 24.1354 25.4188 21.4083 27.9493 20.368L28.0241 20.3372L28.0242 16.7426Z" fill="#F39C12"/>
<path d="M18.9657 29.9548C18.9657 30.944 18.1638 31.7459 17.1747 31.7459C16.1855 31.7459 15.3836 30.944 15.3836 29.9548C15.3836 28.9657 16.1855 28.1638 17.1747 28.1638C18.1638 28.1638 18.9657 28.9657 18.9657 29.9548Z" fill="#D89E22"/>
<path d="M17.023 27.9686C16.0012 27.9686 15.1717 28.7981 15.1717 29.8199C15.1717 30.8417 16.0012 31.6715 17.023 31.6715C18.0448 31.6715 18.8743 30.8417 18.8743 29.8199C18.8743 28.7981 18.0448 27.9686 17.023 27.9686Z" fill="#F39C12"/>
<path d="M45.1143 29.9548C45.1143 30.944 44.3124 31.7459 43.3232 31.7459C42.3341 31.7459 41.5322 30.944 41.5322 29.9548C41.5322 28.9657 42.3341 28.1638 43.3232 28.1638C44.3124 28.1638 45.1143 28.9657 45.1143 29.9548Z" fill="#D89E22"/>
<path d="M43.1713 27.9686C42.1495 27.9686 41.32 28.7981 41.32 29.8199C41.32 30.8417 42.1495 31.6715 43.1713 31.6715C44.1931 31.6715 45.0229 30.8417 45.0229 29.8199C45.0229 28.7981 44.1931 27.9686 43.1713 27.9686Z" fill="#F39C12"/>
<path d="M48.2127 47.1919C47.1836 46.385 47.0036 44.8965 47.8106 43.8675C48.6175 42.8384 50.1059 42.6583 51.135 43.4653C52.1641 44.2722 52.3441 45.7606 51.5372 46.7897C50.7302 47.8188 49.2417 47.9989 48.2127 47.1919Z" fill="#FFB500"/>
<path d="M8.75151 16.2491C7.72242 15.4422 7.54228 13.9537 8.34922 12.9247C9.15615 11.8956 10.6446 11.7155 11.6737 12.5225C12.7027 13.3294 12.8829 14.8178 12.076 15.8469C11.2689 16.876 9.7806 17.056 8.75151 16.2491Z" fill="#FFB500"/>
<path d="M41.5242 52.2211C40.8163 51.1216 41.1338 49.6563 42.2334 48.9484C43.333 48.2406 44.7982 48.5581 45.5061 49.6577C46.214 50.7572 45.8964 52.2225 44.7969 52.9303C43.6973 53.6383 42.2321 53.3207 41.5242 52.2211Z" fill="#FFB500"/>
<path d="M14.3802 10.0567C13.6723 8.95715 13.9899 7.49188 15.0894 6.78401C16.189 6.07614 17.6542 6.39367 18.3621 7.49324C19.07 8.5928 18.7525 10.0581 17.6529 10.7659C16.5533 11.4738 15.0881 11.1563 14.3802 10.0567Z" fill="#FFB500"/>
<path d="M40.7233 7.09637C40.2771 8.32568 38.9189 8.96048 37.6896 8.51432C36.4603 8.06816 35.8255 6.70997 36.2717 5.48066C36.7178 4.25135 38.076 3.61655 39.3053 4.06271C40.5346 4.50887 41.1694 5.86706 40.7233 7.09637Z" fill="#FFB500"/>
<path d="M23.6146 54.2337C23.1685 55.463 21.8103 56.0978 20.581 55.6517C19.3516 55.2055 18.7168 53.8473 19.163 52.618C19.6092 51.3887 20.9674 50.7539 22.1967 51.2001C23.426 51.6463 24.0608 53.0045 23.6146 54.2337Z" fill="#FFB500"/>
</svg>
