<svg width="325" height="452" viewBox="0 0 325 452" fill="none" xmlns="http://www.w3.org/2000/svg">
<path d="M143.093 451.443C222.121 451.443 286.186 438.974 286.186 423.592C286.186 408.21 222.121 395.741 143.093 395.741C64.065 395.741 0 408.21 0 423.592C0 438.974 64.065 451.443 143.093 451.443Z" fill="#361900" fill-opacity="0.5"/>
<path d="M59.6165 369.609C59.6165 369.609 46.5899 371.882 51.3087 398.091C42.0704 399.86 26.8506 405.67 34.4938 418.238C42.0704 430.805 74.9692 426.258 78.7576 420.638C82.5459 415.08 85.6696 398.533 85.6696 398.533L59.6165 369.609Z" fill="#FFD444"/>
<path d="M78.7576 420.638C82.5459 415.08 85.6696 398.533 85.6696 398.533L59.6165 369.609C59.6165 369.609 46.5899 371.882 51.3087 398.091C51.3087 398.091 60.1481 410.722 67.7913 413.375C63.2054 416.785 46.0581 424.869 33.0316 415.333C33.3639 416.28 33.8291 417.227 34.4273 418.301C42.1369 430.869 74.9692 426.258 78.7576 420.638Z" fill="#F0A530"/>
<path d="M123.952 217.532C123.952 217.532 78.7576 202.565 68.8547 187.913C57.689 173.071 38.0162 177.303 29.9078 178.44C21.7994 179.513 9.76979 186.586 17.7453 193.028C25.7207 199.47 31.9017 201.68 42.2698 203.954C47.9191 205.217 56.0275 214.627 68.7882 230.163C81.549 245.699 95.7054 262.877 95.7054 262.877C95.7054 262.877 128.538 237.868 123.952 217.532Z" fill="#FFD444"/>
<path d="M68.8547 187.913C65.6645 183.618 61.7433 180.966 57.5562 179.324C60.7464 181.471 64.6012 184.439 65.3987 186.965C66.7944 191.386 68.7883 198.396 78.1595 203.449C87.4642 208.564 103.482 214.69 103.614 222.964C103.747 231.3 89.5909 248.794 89.5909 248.794C89.5909 248.794 67.7249 225.742 55.5623 214.438C59.3507 218.543 63.7372 223.848 68.8547 230.1C81.6819 245.636 95.7719 262.814 95.7719 262.814C95.7719 262.814 128.604 237.868 123.952 217.532C123.952 217.532 78.7576 202.565 68.8547 187.913Z" fill="#F0A530"/>
<path d="M234.213 50.1725H219.923V132.716H234.213V50.1725Z" fill="#00AEEF"/>
<path d="M227.035 53.3302C230.962 53.3302 234.146 51.9447 234.146 50.2356C234.146 48.5265 230.962 47.141 227.035 47.141C223.107 47.141 219.923 48.5265 219.923 50.2356C219.923 51.9447 223.107 53.3302 227.035 53.3302Z" fill="#48C2EF"/>
<path d="M222.648 0.911865C222.648 0.911865 225.24 10.4482 221.651 19.2267C218.062 27.942 214.939 44.4886 226.57 45.499C238.2 46.5095 239.463 35.0154 236.871 23.2054C234.213 11.3324 222.648 0.911865 222.648 0.911865Z" fill="#FFD444"/>
<path d="M226.769 18.4057C226.769 18.4057 226.37 26.9947 224.243 31.984C221.651 38.11 220.588 44.8675 227.301 45.4991C234.013 46.0674 236.074 38.11 234.545 31.2893C233.016 24.4686 226.769 18.4057 226.769 18.4057Z" fill="#FF8B0D"/>
<path d="M219.923 54.0249V66.4664C224.177 68.9926 228.962 71.1398 234.213 72.5924V61.7298C228.696 59.8983 223.911 57.1827 219.923 54.0249Z" fill="#008FC4"/>
<path d="M234.146 82.1919C228.829 80.9288 224.044 78.9079 219.857 76.3817V88.0021C224.177 90.0862 229.029 91.7282 234.146 92.8019V82.1919Z" fill="#008FC4"/>
<path d="M234.146 103.601C228.896 102.528 224.044 100.696 219.857 98.3594V109.79C224.243 111.748 229.029 113.264 234.146 114.148V103.601Z" fill="#008FC4"/>
<path d="M225.639 49.8567C226.237 48.2778 226.835 46.6358 227.301 44.9306C227.766 43.2886 228.165 41.5834 228.497 39.8783C228.763 38.1731 228.962 36.4048 229.029 34.6996C229.029 32.9313 228.896 31.2261 228.497 29.4577C229.095 31.0998 229.494 32.8681 229.693 34.6364C229.893 36.4048 229.959 38.1731 229.893 40.0046C229.826 41.7729 229.693 43.6044 229.427 45.3727C229.162 47.141 228.896 48.9094 228.431 50.7409C228.231 51.4987 227.434 51.9408 226.702 51.7513C225.905 51.5619 225.44 50.804 225.639 50.1093C225.573 49.983 225.639 49.9198 225.639 49.8567Z" fill="#F91FA2"/>
<path d="M272.76 84.6506L250.835 164.519L264.661 167.946L286.586 88.0777L272.76 84.6506Z" fill="#F1668C"/>
<path d="M286.523 88.152C286.977 86.4983 284.264 84.3941 280.464 83.4521C276.664 82.5101 273.215 83.0871 272.761 84.7408C272.307 86.3945 275.02 88.4987 278.82 89.4407C282.62 90.3827 286.069 89.8057 286.523 88.152Z" fill="#F48AA6"/>
<path d="M289.509 34.0049C289.509 34.0049 284.591 48.1516 279.075 57.309C273.625 66.4664 266.248 80.1078 282.132 82.0024C298.016 83.8971 300.409 71.6451 297.551 58.6984C294.693 45.7517 289.509 34.0049 289.509 34.0049Z" fill="#FFD444"/>
<path d="M287.117 57.9405C287.117 57.9405 283.195 64.6981 280.404 69.2452C276.948 74.866 275.419 81.1183 283.328 82.0656C291.304 83.0129 294.162 75.6238 292.699 69.182C291.237 62.7403 287.117 57.9405 287.117 57.9405Z" fill="#FF8B0D"/>
<path d="M271.764 88.381L268.441 100.444C271.897 103.917 275.951 107.138 280.603 109.79L283.461 99.3068C278.742 96.1491 274.755 92.3598 271.764 88.381Z" fill="#D45376"/>
<path d="M278.078 119.074C273.293 116.548 269.172 113.453 265.782 110.043L262.725 121.285C266.38 124.379 270.568 127.095 275.286 129.305L278.078 119.074Z" fill="#D45376"/>
<path d="M272.429 139.789C267.643 137.452 263.456 134.547 260 131.263L256.943 142.315C260.665 145.283 264.918 147.873 269.571 149.957L272.429 139.789Z" fill="#D45376"/>
<path d="M278.41 85.7286C279.407 84.3392 280.404 82.8866 281.268 81.3709C282.132 79.8552 282.996 78.3395 283.727 76.7606C284.458 75.1817 285.123 73.5397 285.588 71.8977C286.053 70.1925 286.386 68.4874 286.518 66.719C286.651 68.4874 286.585 70.2557 286.319 72.024C286.053 73.7923 285.588 75.5607 285.056 77.2658C284.525 78.971 283.86 80.6762 283.195 82.3182C282.464 83.9602 281.733 85.6023 280.803 87.2443C280.404 87.939 279.54 88.1916 278.809 87.8127C278.078 87.4337 277.812 86.6127 278.211 85.918C278.344 85.8549 278.41 85.7917 278.41 85.7286Z" fill="#F91FA2"/>
<path d="M302.024 151.003L248.975 216.369L260.29 224.661L313.34 159.295L302.024 151.003Z" fill="#00AEEF"/>
<path d="M313.239 159.335C314.338 157.982 312.707 155.037 309.597 152.758C306.487 150.478 303.075 149.728 301.976 151.081C300.878 152.435 302.509 155.38 305.619 157.659C308.729 159.938 312.141 160.688 313.239 159.335Z" fill="#48C2EF"/>
<path d="M325 106.317C325 106.317 313.901 116.548 309.647 125.011C305.327 133.473 300.941 149.704 312.505 151.536C324.069 153.367 326.196 141.999 324.468 130.063C322.807 118.064 325 106.317 325 106.317Z" fill="#FFD444"/>
<path d="M320.68 125.011C320.68 125.011 313.701 133.094 311.242 137.957C308.185 143.894 306.59 150.588 313.236 151.599C319.882 152.609 322.541 144.841 321.61 137.957C320.547 131.074 320.68 125.011 320.68 125.011Z" fill="#FF8B0D"/>
<path d="M299.545 154.062L291.569 163.914C293.297 168.398 295.756 172.882 298.947 177.05L305.925 168.461C302.735 163.788 300.675 158.862 299.545 154.062Z" fill="#008FC4"/>
<path d="M292.766 184.629C289.376 180.524 286.851 176.166 285.189 171.745L277.745 180.966C279.872 185.134 282.597 189.239 285.986 193.028L292.766 184.629Z" fill="#008FC4"/>
<path d="M279.008 201.554C275.552 197.639 272.894 193.407 271.099 189.113L263.788 198.144C265.982 202.249 268.839 206.164 272.296 209.891L279.008 201.554Z" fill="#008FC4"/>
<path d="M306.723 154.125C307.388 153.683 308.119 153.115 308.783 152.546C309.116 152.23 309.448 151.915 309.78 151.662L310.711 150.715C311.973 149.388 313.037 147.999 313.967 146.42C314.432 145.662 314.831 144.841 315.297 144.083C315.496 143.704 315.629 143.262 315.828 142.82C315.895 142.631 316.028 142.378 316.094 142.189L316.293 141.557C316.892 139.852 317.157 138.021 317.29 136.252C317.357 138.084 317.357 139.915 317.025 141.747L316.892 142.441C316.825 142.694 316.759 142.884 316.692 143.136C316.559 143.578 316.493 144.02 316.293 144.462C315.961 145.347 315.695 146.231 315.297 147.115C314.499 148.82 313.568 150.525 312.439 152.041L311.575 153.178C311.242 153.557 310.976 153.936 310.644 154.314C309.979 155.072 309.315 155.704 308.517 156.462C307.919 156.967 306.989 156.967 306.457 156.399C305.925 155.83 305.925 154.946 306.523 154.441C306.59 154.188 306.59 154.188 306.723 154.125Z" fill="#F91FA2"/>
<path d="M119.964 199.281C119.964 199.281 126.743 217.153 106.672 240.836C86.6001 264.519 42.6686 291.865 42.0705 347.189C41.8046 372.324 58.5531 412.364 107.004 420.385C165.158 429.984 252.689 420.195 265.716 377.882C280.005 331.4 238.798 290.602 238.798 290.602C238.798 290.602 296.554 225.805 269.504 147.494C245.112 76.8869 162.035 91.3493 162.035 91.3493L119.964 199.281Z" fill="#6B411C"/>
<path d="M95.0408 279.108C87.5306 279.361 59.8823 311.191 63.4713 325.021C67.0603 338.915 138.906 348.326 168.282 331.084C183.901 321.611 182.04 289.844 179.714 288.708C171.738 284.729 148.875 294.076 123.686 288.581C99.228 283.213 102.551 278.792 95.0408 279.108Z" fill="#804C1F"/>
<path d="M138.773 214.185C147.147 219.806 157.183 224.1 169.744 218.29C182.306 212.543 181.641 200.67 195.199 197.133C208.824 193.533 239.397 184.502 241.39 162.082C243.118 142.126 229.095 127.158 207.96 110.485C201.447 105.812 205.501 101.012 227.101 109.664L227.301 99.0542C198.522 85.6654 162.101 91.4125 162.101 91.4125L120.031 199.407C120.031 199.407 121.36 202.944 121.094 208.88C126.145 209.385 133.655 210.775 138.773 214.185Z" fill="#F91FA2"/>
<path d="M66.9274 358.809C66.728 355.967 69.6523 353.946 72.4437 354.893C84.0746 358.999 118.834 368.977 156.12 356.093C160.041 354.578 160.041 390.765 136.713 399.039C113.384 407.312 78.3589 392.723 70.9816 373.714C68.1901 366.514 67.1267 361.841 66.9274 358.809Z" fill="#804C1F"/>
<path d="M269.504 147.431C252.29 97.6016 208.691 90.1494 184.565 90.0862L185.828 98.2331C185.828 98.2331 233.681 99.812 253.553 144.652C273.425 189.555 256.145 216.459 256.145 216.459C256.145 216.459 232.485 211.848 220.987 228.837C212.28 241.721 215.803 259.151 215.803 259.151L227.101 267.993L201.912 290.665L197.791 285.487C197.791 285.487 185.629 295.907 194.734 317.253C203.839 338.6 221.319 336.01 227.965 330.895C234.611 325.716 230.757 309.043 230.757 309.043C230.757 309.043 262.459 353.504 241.058 383.629C219.657 413.88 151.401 413.122 123.154 410.343C95.1073 407.565 42.2698 393.102 42.4028 340.052C42.2034 342.389 42.0705 344.726 42.0705 347.189C41.8046 372.324 58.5531 412.364 107.004 420.385C165.158 429.984 252.689 420.195 265.716 377.882C280.005 331.4 238.798 290.602 238.798 290.602C238.798 290.602 296.554 225.806 269.504 147.431Z" fill="#F91FA2"/>
<path d="M249.524 137.099C253.267 133.602 251.775 126.392 246.19 120.994C240.606 115.597 233.044 114.056 229.301 117.553C225.558 121.05 227.051 128.26 232.635 133.658C238.22 139.055 245.781 140.596 249.524 137.099Z" fill="#F91FA2"/>
<path d="M268.891 191.829C268.97 182.969 264.035 175.747 257.869 175.697C251.702 175.647 246.639 182.788 246.559 191.648C246.48 200.507 251.414 207.73 257.581 207.779C263.748 207.829 268.811 200.688 268.891 191.829Z" fill="#F91FA2"/>
<path d="M149.437 387.442C158.711 386.528 165.713 381.062 165.077 375.233C164.44 369.405 156.406 365.421 147.132 366.335C137.859 367.249 130.856 372.715 131.493 378.544C132.129 384.373 140.163 388.357 149.437 387.442Z" fill="#F91FA2"/>
<path d="M254.179 362.885C256.607 354.331 253.748 346.16 247.794 344.634C241.84 343.108 235.046 348.805 232.618 357.359C230.19 365.913 233.049 374.084 239.002 375.61C244.956 377.135 251.751 371.438 254.179 362.885Z" fill="#F91FA2"/>
<path d="M111.495 319.21C114.102 313.9 109.365 306.559 100.915 302.814C92.4657 299.069 83.5027 300.338 80.8961 305.649C78.2895 310.96 83.0262 318.301 91.476 322.046C99.9257 325.79 108.889 324.521 111.495 319.21Z" fill="#F91FA2"/>
<path d="M112.72 116.864C112.72 116.864 98.6298 107.012 103.415 93.9386C107.336 83.2024 120.164 78.4657 129.535 85.4759C137.577 91.1598 149.008 91.6651 153.594 82.255C158.18 72.845 180.179 66.9716 191.81 79.6657C203.441 92.3598 188.553 108.338 188.553 108.338C188.553 108.338 213.942 124.948 223.047 136.821C232.152 148.694 238.931 167.072 220.256 178.945C201.58 190.818 184.831 192.334 177.919 204.143C171.007 215.953 154.923 220.248 141.764 209.638C131.994 201.68 102.684 208.817 87.9959 188.292C68.1901 160.504 111.324 127.979 112.72 116.864Z" fill="#FFD444"/>
<path d="M223.047 136.884C220.521 133.6 216.8 130 212.679 126.463C215.005 128.737 217.132 130.947 218.727 132.968C227.832 144.841 234.611 163.219 215.936 175.092C197.26 186.965 180.511 188.481 173.599 200.291C166.621 212.038 153.328 216.459 140.169 205.849C131.728 199.028 106.273 203.196 90.7208 191.576C106.007 208.122 132.592 202.186 141.83 209.701C154.99 220.311 171.007 216.017 177.986 204.207C184.964 192.46 201.646 190.881 220.322 179.008C238.932 167.072 232.152 148.694 223.047 136.884Z" fill="#F0A530"/>
<path d="M148.27 154.383C150.377 142.164 141.72 130.645 128.934 128.654C116.148 126.663 104.074 134.954 101.967 147.173C99.8602 159.392 108.517 170.911 121.304 172.902C134.09 174.893 146.163 166.601 148.27 154.383Z" fill="#F0A530"/>
<path d="M167.352 167.261C181.704 167.261 193.338 156.206 193.338 142.568C193.338 128.93 181.704 117.874 167.352 117.874C153 117.874 141.365 128.93 141.365 142.568C141.365 156.206 153 167.261 167.352 167.261Z" fill="#F0A530"/>
<path d="M189.355 145.322C191.503 132.862 182.674 121.116 169.634 119.086C156.595 117.055 144.282 125.51 142.133 137.969C139.985 150.429 148.814 162.176 161.854 164.206C174.893 166.236 187.206 157.782 189.355 145.322Z" fill="white"/>
<path d="M146.024 152.643C147.995 141.216 139.903 130.443 127.949 128.582C115.996 126.721 104.709 134.476 102.738 145.903C100.768 157.33 108.86 168.102 120.813 169.963C132.767 171.824 144.054 164.07 146.024 152.643Z" fill="white"/>
<path d="M138.308 133.031C142.229 137.515 144.156 143.578 143.093 149.83C141.099 161.261 129.867 169.029 117.904 167.135C113.916 166.503 110.394 164.924 107.536 162.651C110.792 166.377 115.445 169.029 120.828 169.914C132.791 171.745 144.09 164.04 146.017 152.609C147.347 144.904 144.156 137.578 138.308 133.031Z" fill="#F0E5D8"/>
<path d="M132.231 148.565C133.413 141.716 128.879 135.309 122.106 134.254C115.332 133.199 108.884 137.897 107.703 144.746C106.522 151.595 111.055 158.003 117.828 159.058C124.602 160.112 131.05 155.415 132.231 148.565Z" fill="#F0A530"/>
<path d="M130.719 148.34C131.835 141.869 127.689 135.837 121.459 134.867C115.228 133.897 109.273 138.356 108.157 144.827C107.042 151.297 111.188 157.329 117.418 158.299C123.648 159.269 129.603 154.81 130.719 148.34Z" fill="#FFD444"/>
<path d="M122.942 146.946C123.512 143.642 121.39 140.561 118.203 140.064C115.015 139.568 111.969 141.844 111.399 145.148C110.83 148.453 112.952 151.534 116.139 152.03C119.327 152.526 122.373 150.25 122.942 146.946Z" fill="#F91FA2"/>
<path d="M115.783 143.632C116.02 142.255 115.156 140.974 113.852 140.771C112.548 140.568 111.298 141.52 111.061 142.897C110.823 144.273 111.688 145.554 112.992 145.757C114.296 145.96 115.546 145.009 115.783 143.632Z" fill="white"/>
<path d="M127.033 152.376C127.217 151.309 126.544 150.316 125.53 150.158C124.516 150 123.545 150.737 123.361 151.804C123.177 152.871 123.85 153.864 124.864 154.022C125.878 154.18 126.849 153.443 127.033 152.376Z" fill="white"/>
<path d="M189.355 145.322C191.503 132.862 182.674 121.116 169.634 119.086C156.595 117.055 144.282 125.51 142.133 137.969C139.985 150.429 148.814 162.176 161.854 164.206C174.893 166.236 187.206 157.782 189.355 145.322Z" fill="white"/>
<path d="M180.711 123.748C184.831 128.611 186.892 135.115 185.695 141.81C183.568 154.251 171.206 162.714 158.18 160.693C153.993 160.062 150.204 158.356 147.081 155.956C150.67 160.188 155.787 163.156 161.835 164.103C174.862 166.124 187.224 157.662 189.351 145.22C190.813 136.821 187.224 128.737 180.711 123.748Z" fill="#F0E5D8"/>
<path d="M173.729 140.78C175.022 133.277 170.228 126.284 163.02 125.162C155.812 124.04 148.92 129.212 147.626 136.716C146.332 144.219 151.126 151.211 158.334 152.334C165.542 153.456 172.435 148.283 173.729 140.78Z" fill="#F0A530"/>
<path d="M172.64 140.643C173.863 133.553 169.334 126.945 162.524 125.885C155.715 124.825 149.203 129.713 147.98 136.803C146.758 143.894 151.287 150.501 158.096 151.561C164.906 152.622 171.418 147.733 172.64 140.643Z" fill="#FFD444"/>
<path d="M164.242 139.112C164.865 135.498 162.552 132.129 159.074 131.588C155.597 131.046 152.273 133.537 151.65 137.151C151.026 140.765 153.34 144.134 156.817 144.675C160.295 145.217 163.619 142.726 164.242 139.112Z" fill="#F91FA2"/>
<path d="M156.31 135.455C156.565 133.975 155.627 132.597 154.214 132.377C152.802 132.157 151.45 133.179 151.195 134.659C150.939 136.139 151.878 137.517 153.29 137.737C154.703 137.957 156.055 136.935 156.31 135.455Z" fill="white"/>
<path d="M168.705 145.062C168.907 143.892 168.16 142.802 167.037 142.627C165.914 142.452 164.84 143.259 164.639 144.429C164.437 145.599 165.183 146.69 166.306 146.865C167.429 147.04 168.503 146.233 168.705 145.062Z" fill="white"/>
<path d="M196.263 139.726C196.196 141.81 196.595 143.831 197.658 145.22C198.722 146.61 200.25 147.494 202.111 148.062C203.972 148.631 205.833 148.883 207.694 148.504C209.555 148.189 211.35 147.178 213.011 145.725C212.413 147.81 210.685 149.641 208.425 150.525C206.166 151.473 203.441 151.346 201.247 150.652C200.649 150.462 200.117 150.209 199.586 150.02C199.32 149.894 199.054 149.704 198.788 149.578C198.522 149.388 198.257 149.262 197.991 149.073L197.26 148.504C197.06 148.315 196.861 148.062 196.661 147.81C196.462 147.557 196.263 147.304 196.13 147.052C195.997 146.799 195.797 146.546 195.664 146.231C195.133 145.094 195 143.894 195.133 142.82C195.266 141.684 195.598 140.61 196.263 139.726Z" fill="#F91FA2"/>
<path d="M97.6329 170.987C101.621 174.082 106.074 176.166 110.593 177.745C115.112 179.324 119.765 180.208 124.417 180.65C125.613 180.713 126.743 180.839 127.94 180.903C129.136 180.966 130.266 180.966 131.462 180.966C133.788 180.903 136.181 180.903 138.507 180.65L140.235 180.524L142.03 180.334C143.226 180.208 144.356 180.018 145.552 179.829C146.748 179.703 147.878 179.45 149.075 179.261C150.271 179.071 151.401 178.818 152.531 178.566C153.661 178.313 154.857 178.061 155.987 177.808L159.376 176.861C161.636 176.229 163.896 175.471 166.022 174.65C168.216 173.892 170.343 172.945 172.536 171.998C173.599 171.493 174.663 170.987 175.66 170.419C176.723 169.914 177.72 169.345 178.783 168.777C182.904 166.44 186.825 163.788 190.547 160.756C194.269 157.725 197.791 154.378 201.048 150.588C200.516 153.051 199.586 155.388 198.522 157.599C197.393 159.872 196.063 162.019 194.601 164.103C193.073 166.188 191.478 168.208 189.683 170.04C188.753 170.987 187.822 171.871 186.892 172.756C185.961 173.64 184.898 174.461 183.901 175.345C179.78 178.629 175.194 181.408 170.276 183.618C167.817 184.755 165.291 185.639 162.766 186.523C161.503 186.902 160.174 187.281 158.911 187.66C157.582 187.976 156.319 188.355 154.99 188.607C152.331 189.113 149.739 189.618 147.081 189.934C145.752 190.06 144.422 190.249 143.093 190.313L141.099 190.439C140.435 190.502 139.77 190.439 139.105 190.502C133.722 190.565 128.272 189.997 122.955 188.734C117.704 187.344 112.653 185.26 108.2 182.292C106.007 180.776 103.947 179.134 102.152 177.24C100.291 175.282 98.6963 173.261 97.6329 170.987Z" fill="#FFB033"/>
<path d="M98.4304 160.188C99.8925 161.261 100.823 162.967 101.089 164.861C101.222 165.809 101.089 166.819 100.823 167.703C100.491 168.651 100.092 169.535 99.4273 170.293C99.095 170.671 98.8291 171.05 98.4968 171.366L97.9651 171.871C97.7657 171.998 97.5663 172.187 97.3669 172.314C96.5694 172.882 95.7054 173.387 94.7749 173.64C92.914 174.271 90.5878 174.019 89.2586 172.819C91.1195 172.882 92.5817 172.44 93.8445 171.619C93.9774 171.556 94.1768 171.429 94.3097 171.303C94.4426 171.177 94.642 171.114 94.7749 170.987C95.0408 170.735 95.3731 170.545 95.6389 170.229C95.7719 170.103 95.9048 169.977 96.0377 169.85L96.4365 169.408C96.5694 169.282 96.7023 169.156 96.8353 168.966L97.1676 168.524C97.6328 167.956 97.9651 167.387 98.2974 166.756C98.5633 166.124 98.7627 165.43 98.8956 164.735C99.0285 163.472 98.8956 161.893 98.4304 160.188Z" fill="#F91FA2"/>
<path d="M136.978 184.944C137.577 188.481 139.371 197.007 143.824 199.47C149.54 202.628 160.905 200.859 163.497 193.281C165.092 188.734 164.361 183.555 163.563 180.145C159.642 181.471 155.322 182.671 150.603 183.492C145.685 184.376 141.099 184.818 136.978 184.944Z" fill="#F1668C"/>
<path d="M163.563 180.145C162.699 180.46 161.769 180.776 160.838 181.029C161.304 184.187 161.437 188.039 160.24 191.513C157.914 198.27 148.609 200.417 142.561 198.523C142.96 198.902 143.359 199.217 143.824 199.407C149.54 202.565 160.905 200.796 163.497 193.218C165.092 188.671 164.361 183.492 163.563 180.145Z" fill="#DB5D7F"/>
<path d="M151.733 183.05L152.398 193.407L146.881 184.439L151.733 183.05Z" fill="#F91FA2"/>
<path d="M125.414 221.258C125.813 222.395 126.411 223.469 127.142 224.416C127.873 225.363 128.671 226.248 129.535 227.005C130.465 227.763 131.396 228.458 132.393 229.026C133.389 229.595 134.453 230.1 135.583 230.479C139.969 232.058 144.821 232.437 149.606 232.247C154.392 232.058 159.243 231.363 164.029 230.289L167.618 229.532C168.216 229.405 168.814 229.216 169.412 229.09L171.14 228.584C172.336 228.269 173.466 227.953 174.663 227.574L178.119 226.437C187.357 223.342 196.196 219.174 204.77 214.375C209.023 211.911 213.211 209.385 217.265 206.606C221.319 203.828 225.307 200.923 228.962 197.575C227.766 199.723 226.171 201.617 224.576 203.512C223.778 204.459 222.914 205.343 222.05 206.291L219.392 208.943C215.736 212.354 211.815 215.511 207.694 218.48C199.386 224.227 190.215 229.09 180.378 232.31L176.656 233.51C175.394 233.889 174.131 234.205 172.868 234.521L171.007 234.963C170.409 235.089 169.744 235.279 169.08 235.405L165.225 236.1L163.297 236.415C162.633 236.542 162.035 236.605 161.37 236.668C160.107 236.858 158.778 236.921 157.449 237.047C156.784 237.11 156.12 237.11 155.455 237.173C154.79 237.173 154.126 237.236 153.461 237.236C152.132 237.236 150.803 237.236 149.473 237.173C146.815 237.047 144.156 236.731 141.564 236.1C138.972 235.468 136.38 234.584 134.054 233.258C132.858 232.626 131.794 231.868 130.731 231.047C129.734 230.226 128.804 229.279 128.006 228.205C127.208 227.195 126.544 226.058 126.079 224.921C125.879 223.658 125.48 222.458 125.414 221.258Z" fill="#F91FA2"/>
<path d="M97.8322 263.572C98.5633 264.456 99.3609 265.277 100.225 266.035C100.624 266.414 101.089 266.793 101.554 267.109C102.019 267.488 102.485 267.803 102.95 268.119C103.88 268.751 104.877 269.319 105.808 269.887L107.336 270.645L108.067 271.024L108.865 271.34C112.986 273.171 117.306 274.435 121.759 275.319C126.212 276.266 130.731 276.645 135.317 276.961C137.577 277.087 139.903 277.15 142.163 277.15C144.489 277.15 146.748 277.15 149.075 277.024C158.246 276.708 167.485 275.698 176.656 274.245C181.242 273.487 185.828 272.666 190.348 271.593C192.607 271.087 194.867 270.519 197.06 269.824C198.19 269.508 199.254 269.13 200.383 268.687C201.447 268.309 202.51 267.803 203.507 267.109C202.842 268.056 201.846 268.814 200.915 269.508C199.918 270.203 198.921 270.772 197.858 271.403C195.798 272.54 193.604 273.55 191.411 274.498C187.025 276.329 182.439 277.782 177.853 279.045C168.614 281.508 159.044 282.96 149.407 283.276C144.555 283.402 139.703 283.339 134.918 282.834C133.722 282.708 132.526 282.518 131.329 282.329C130.133 282.139 128.937 282.013 127.74 281.76L124.151 281.003L120.629 279.992C115.976 278.54 111.457 276.582 107.403 273.866L106.672 273.361L105.941 272.793L104.545 271.656C103.681 270.835 102.75 270.077 101.953 269.193C100.092 267.614 98.6298 265.719 97.8322 263.572Z" fill="#F91FA2"/>
<path d="M56.1605 324.2C56.2934 325.716 56.6922 327.169 57.2903 328.558C57.822 329.947 58.4866 331.274 59.2842 332.537C60.8793 335 62.8731 337.21 65.1993 339.042C69.8517 342.768 75.4345 345.105 81.2832 346.747C87.1318 348.389 93.2464 349.273 99.3609 349.778C102.418 350.031 105.542 350.157 108.666 350.283C111.789 350.346 114.913 350.473 118.037 350.41C130.465 350.346 142.894 349.21 154.923 346.431C160.971 345.041 166.886 343.21 172.669 340.936C175.593 339.8 178.384 338.537 181.242 337.21C182.638 336.579 184.034 335.821 185.429 335.126C186.825 334.431 188.221 333.674 189.617 332.979C184.831 337.021 179.647 340.621 174.064 343.652C168.482 346.684 162.5 349.147 156.319 351.104C143.957 354.894 130.93 356.536 118.037 356.536C116.442 356.536 114.78 356.536 113.185 356.472C111.59 356.472 109.995 356.346 108.333 356.283C105.143 356.094 101.886 355.904 98.6963 355.525C95.4396 355.146 92.2494 354.641 89.0592 353.946C85.8691 353.252 82.6789 352.367 79.6216 351.294C76.5643 350.157 73.5071 348.831 70.7157 347.189C67.8578 345.547 65.2658 343.526 63.0061 341.189C60.7463 338.852 58.8854 336.2 57.6891 333.232C56.4928 330.39 55.8281 327.232 56.1605 324.2Z" fill="#F91FA2"/>
<path d="M229.095 266.288L220.987 257.762C220.987 257.762 217.464 221.258 252.822 223.09C259.269 223.595 283.86 249.931 284.525 263.509C285.189 277.15 273.957 283.529 249.898 292.56C225.838 301.591 223.579 306.58 223.579 306.58C223.579 306.58 232.152 328.621 217.531 329.695C202.909 330.768 189.617 307.717 194.801 292.307C198.124 282.518 204.438 280.055 209.156 278.54C213.809 277.024 229.095 266.288 229.095 266.288Z" fill="#FFD444"/>
<path d="M204.504 378.703C204.504 378.703 205.501 406.87 189.284 421.016C204.571 430.616 219.325 431.753 232.485 428.658C243.783 426.006 248.103 413.943 237.469 404.091C229.893 397.081 216.201 398.533 216.201 398.533C216.201 398.533 217.265 385.903 204.504 378.703Z" fill="#FFD444"/>
<path d="M248.08 135.102C251.823 131.605 250.331 124.395 244.746 118.997C239.162 113.6 231.601 112.059 227.858 115.556C224.114 119.053 225.607 126.263 231.192 131.661C236.776 137.058 244.337 138.599 248.08 135.102Z" fill="#00AEEF"/>
<path d="M244.714 118.948C243.517 117.811 242.255 116.864 240.925 116.043C240.992 116.106 241.058 116.106 241.058 116.169C246.641 121.537 248.103 128.737 244.381 132.273C241.457 135.052 236.14 134.673 231.288 131.768C236.871 137.01 244.315 138.526 248.037 135.052C251.759 131.579 250.297 124.379 244.714 118.948Z" fill="#008FC4"/>
<path d="M231.607 122.034C231.684 120.257 230.765 118.777 229.555 118.73C228.345 118.683 227.301 120.085 227.224 121.863C227.147 123.64 228.066 125.119 229.276 125.167C230.487 125.214 231.53 123.811 231.607 122.034Z" fill="white"/>
<path d="M267.403 189.698C267.483 180.838 262.548 173.616 256.382 173.566C250.215 173.516 245.151 180.657 245.072 189.517C244.992 198.376 249.927 205.599 256.094 205.649C262.26 205.699 267.324 198.557 267.403 189.698Z" fill="#F1668C"/>
<path d="M262.526 176.355C263.788 179.008 264.52 182.166 264.52 185.639C264.453 194.544 259.402 201.68 253.221 201.617C250.961 201.617 248.834 200.607 247.106 198.902C249.1 203.007 252.423 205.722 256.145 205.786C262.326 205.849 267.377 198.712 267.444 189.807C267.444 184.187 265.516 179.261 262.526 176.355Z" fill="#D45376"/>
<path d="M254.264 182.683C255.105 180.749 254.714 178.76 253.391 178.241C252.068 177.721 250.314 178.868 249.473 180.802C248.632 182.736 249.022 184.725 250.345 185.245C251.668 185.764 253.423 184.618 254.264 182.683Z" fill="white"/>
<path d="M147.975 385.358C157.249 384.444 164.251 378.977 163.614 373.149C162.978 367.32 154.944 363.336 145.67 364.251C136.396 365.165 129.394 370.631 130.03 376.46C130.667 382.288 138.701 386.272 147.975 385.358Z" fill="#F1668C"/>
<path d="M140.543 373.087C142.645 372.461 144.001 370.902 143.573 369.604C143.145 368.306 141.094 367.761 138.993 368.387C136.891 369.013 135.535 370.573 135.963 371.871C136.391 373.169 138.442 373.713 140.543 373.087Z" fill="white"/>
<path d="M252.695 360.807C255.123 352.254 252.265 344.082 246.311 342.557C240.357 341.031 233.562 346.728 231.134 355.282C228.707 363.835 231.565 372.006 237.519 373.532C243.473 375.058 250.267 369.361 252.695 360.807Z" fill="#00AEEF"/>
<path d="M163.63 373.082C163.364 370.872 162.101 368.977 160.107 367.461C160.44 368.156 160.639 368.851 160.705 369.609C161.37 375.419 154.325 380.913 145.02 381.797C139.238 382.366 133.921 381.04 130.532 378.513C132.658 383.124 139.836 386.029 147.878 385.271C157.249 384.387 164.228 378.956 163.63 373.082Z" fill="#D45376"/>
<path d="M248.967 343.778C250.828 347.252 251.227 352.241 249.765 357.357C247.306 365.946 240.527 371.63 234.611 370.114C233.614 369.861 232.751 369.419 231.953 368.851C233.216 371.251 235.077 372.956 237.469 373.587C243.451 375.103 250.23 369.419 252.623 360.83C254.75 353.63 253.021 346.747 248.967 343.778Z" fill="#008FC4"/>
<path d="M240.429 352.418C241.088 350.421 240.514 348.472 239.148 348.065C237.783 347.658 236.141 348.947 235.482 350.944C234.823 352.941 235.396 354.89 236.762 355.297C238.128 355.704 239.77 354.415 240.429 352.418Z" fill="white"/>
<path d="M97.6329 170.293C98.4969 171.177 99.4274 171.998 100.424 172.756C101.421 173.513 102.418 174.208 103.415 174.903C105.475 176.229 107.669 177.366 109.928 178.313C114.381 180.271 119.167 181.471 124.018 182.166C126.411 182.481 128.87 182.671 131.329 182.797C133.788 182.86 136.181 182.86 138.64 182.671L140.501 182.545L142.362 182.355C143.558 182.229 144.821 182.039 146.017 181.913C147.214 181.787 148.41 181.534 149.673 181.345C150.869 181.155 152.065 180.839 153.262 180.65C158.047 179.639 162.699 178.25 167.219 176.482C169.479 175.598 171.672 174.587 173.865 173.513C175.992 172.44 178.119 171.24 180.179 169.977C184.233 167.387 188.154 164.482 191.677 161.135C193.471 159.493 195.133 157.725 196.728 155.893C197.526 154.946 198.257 153.999 198.988 153.051C199.719 152.104 200.45 151.094 201.115 150.083C200.317 152.357 199.187 154.567 197.858 156.651C196.595 158.798 195.133 160.756 193.538 162.714C191.943 164.609 190.215 166.503 188.354 168.208C186.493 169.914 184.565 171.556 182.505 173.071C178.384 176.103 173.865 178.629 169.146 180.713C166.754 181.787 164.361 182.608 161.902 183.429C160.639 183.808 159.443 184.187 158.18 184.502C156.917 184.818 155.654 185.134 154.392 185.387C149.34 186.46 144.156 187.155 138.972 187.281C133.788 187.471 128.538 187.029 123.42 185.955C118.303 184.881 113.384 183.05 108.931 180.46C106.738 179.134 104.611 177.682 102.75 176.04C100.69 174.208 98.9622 172.377 97.6329 170.293Z" fill="#F91FA2"/>
<path d="M230.69 260.288C230.69 260.288 227.566 254.604 227.633 248.541C227.766 239.763 235.077 229.911 240.792 224.163C218.262 230.163 220.92 257.762 220.92 257.762L229.029 266.288C229.029 266.288 213.742 277.024 209.023 278.54C204.305 280.055 197.991 282.518 194.668 292.307C193.604 295.528 193.338 299.065 193.671 302.665C194.402 283.908 210.286 279.676 210.286 279.676C210.286 279.676 212.48 279.613 222.316 273.045C232.152 266.54 244.381 257.635 255.946 258.52C247.173 254.351 230.69 260.288 230.69 260.288Z" fill="#F0A530"/>
<path d="M253.354 223.216C258.338 229.342 271.033 246.015 272.03 257.383C273.226 271.529 249.765 280.624 236.206 288.96C222.648 297.297 218.528 302.349 218.528 302.349C218.528 302.349 229.826 320.474 219.79 329.316C231.288 326.221 223.645 306.58 223.645 306.58C223.645 306.58 225.971 301.528 249.964 292.56C274.023 283.529 285.189 277.15 284.591 263.509C283.926 250.246 260.465 224.921 253.354 223.216Z" fill="#F0A530"/>
<path d="M134.054 239.005C130.93 237.552 127.076 238.626 125.281 241.531C124.151 243.426 122.822 245.383 121.493 247.025C117.704 251.888 109.662 258.393 109.795 261.677C109.928 264.961 142.894 278.603 182.306 265.404C186.293 263.635 189.085 239.257 186.426 237.047C184.499 235.405 169.279 243.236 150.071 242.226C142.096 241.784 137.111 240.457 134.054 239.005Z" fill="#804C1F"/>
<path d="M212.679 126.4C201.846 117.116 188.553 108.338 188.553 108.338C188.553 108.338 203.308 92.4229 191.81 79.6657C185.762 72.9713 174.995 70.9503 167.617 73.0976C171.871 74.1712 184.3 76.8869 188.154 83.8339C194.136 94.7596 180.312 103.728 180.777 108.212C181.176 112.696 196.196 113.264 212.679 126.4Z" fill="#F0A530"/>
<path d="M211.416 402.638C221.718 401.691 237.004 403.523 243.584 416.469C243.717 412.491 241.856 408.133 237.469 404.091C229.893 397.081 216.201 398.533 216.201 398.533C216.201 398.533 217.265 385.966 204.504 378.703C204.504 378.703 216.201 385.966 211.416 402.638Z" fill="#F0A530"/>
<path d="M241.856 421.332C232.418 428.784 212.546 426.448 204.105 418.743C198.988 414.133 199.719 408.764 198.921 407.565C196.728 412.491 193.604 417.227 189.351 421.016C204.637 430.616 219.392 431.753 232.551 428.658C237.602 427.458 241.258 424.427 242.786 420.511C242.454 420.764 242.188 421.08 241.856 421.332Z" fill="#F0A530"/>
<path d="M116.442 117.053C118.17 116.043 120.164 115.411 122.224 115.095C124.284 114.717 126.411 114.653 128.471 114.843C129.535 114.906 130.598 115.095 131.595 115.348C132.658 115.601 133.655 115.916 134.652 116.295C136.646 117.053 138.507 118.064 140.235 119.264L137.843 119.579C140.102 116.611 142.894 114.148 145.951 112.064C149.008 109.98 152.398 108.338 155.92 107.264C159.509 106.128 163.298 105.559 167.019 105.875C170.741 106.128 174.397 107.264 177.388 109.159C173.931 108.085 170.409 107.643 166.953 107.833C163.497 108.085 160.174 108.843 156.984 110.106C153.793 111.306 150.803 112.948 148.011 114.843C145.22 116.737 142.628 118.948 140.567 121.474L140.501 121.537C139.903 122.232 138.906 122.358 138.175 121.79C136.713 120.653 135.118 119.643 133.456 118.822C131.794 118.001 130 117.369 128.139 116.927C126.278 116.485 124.351 116.295 122.423 116.295C120.363 116.359 118.369 116.548 116.442 117.053Z" fill="#FFB033"/>
<path d="M124.683 87.3074C121.559 87.939 118.701 88.76 116.442 90.0862C115.312 90.7809 114.381 91.5388 113.517 92.3598L112.986 93.0545L112.72 93.3703C112.653 93.4966 112.587 93.6229 112.52 93.7492C112.387 94.0018 112.188 94.2544 112.055 94.5071C111.922 94.7597 111.789 95.0755 111.656 95.3281C111.523 95.5807 111.391 95.8333 111.258 96.1491L110.992 96.9701C110.859 97.2227 110.792 97.5385 110.726 97.8542C110.659 98.17 110.593 98.4226 110.526 98.7384C110.327 99.8752 110.327 101.075 110.526 102.338C110.859 104.801 112.055 107.391 113.717 110.043C112.188 109.538 110.792 108.591 109.596 107.517C108.4 106.38 107.403 105.054 106.672 103.475C106.472 103.096 106.339 102.654 106.206 102.275C106.074 101.896 105.941 101.454 105.874 101.012C105.808 100.57 105.675 100.128 105.675 99.7489V98.4226C105.808 96.6543 106.206 94.9491 107.004 93.4334C107.669 91.8546 108.865 90.402 110.194 89.2021C111.59 88.0653 113.251 87.1811 114.913 86.6759C116.641 86.1706 118.369 86.0443 120.031 86.1706C121.626 86.297 123.221 86.6127 124.683 87.3074Z" fill="white"/>
<path d="M149.407 90.6546C151.932 88.7599 154.059 86.8653 155.787 84.7812C156.651 83.7707 157.449 82.6971 158.18 81.5603C158.246 81.434 158.379 81.3077 158.446 81.1182C158.512 80.9919 158.645 80.8656 158.778 80.6762L159.576 79.6025C159.841 79.2236 160.174 78.971 160.506 78.5921C160.838 78.2763 161.171 77.9605 161.569 77.7079C163.032 76.5711 164.826 75.8133 166.621 75.4343C168.415 75.1186 170.276 75.1186 171.938 75.4343C173.666 75.7501 175.261 76.3816 176.656 77.329C178.052 78.2131 179.248 79.3499 180.046 80.6762C178.517 80.1078 177.122 79.7288 175.659 79.4762C174.264 79.2236 172.868 79.0973 171.539 79.2236C168.88 79.3499 166.488 80.0446 164.693 81.434C164.228 81.7498 163.829 82.1919 163.43 82.5708L162.832 83.2024C162.766 83.2655 162.633 83.455 162.5 83.6444C162.367 83.8339 162.234 83.9602 162.101 84.1497C161.038 85.4128 159.841 86.5495 158.512 87.4969C157.183 88.4442 155.721 89.202 154.192 89.7073C153.395 89.9599 152.664 90.2125 151.866 90.3388C151.068 90.5914 150.271 90.6546 149.407 90.6546Z" fill="white"/>
<path d="M207.233 143.182C207.635 141.66 206.432 140.06 204.545 139.61C202.658 139.16 200.802 140.029 200.4 141.551C199.998 143.073 201.201 144.673 203.088 145.123C204.975 145.573 206.83 144.704 207.233 143.182Z" fill="white"/>
<path d="M102.888 175.233C103.997 173.407 103.645 171.241 102.101 170.394C100.558 169.547 98.4072 170.34 97.2982 172.166C96.1891 173.991 96.5413 176.157 98.0849 177.004C99.6285 177.851 101.779 177.058 102.888 175.233Z" fill="white"/>
<path d="M21.2013 189.807C21.9988 188.039 23.3281 186.46 24.9232 185.197C26.5182 183.934 28.3792 182.924 30.3731 182.229C34.3608 180.776 38.7473 180.587 42.8015 181.155L44.3301 181.408C44.8618 181.471 45.3271 181.597 45.8587 181.724C46.8557 181.976 47.7862 182.166 48.7831 182.481L50.2453 182.924L51.7074 183.429L53.1031 183.997C53.5684 184.187 54.0336 184.439 54.4988 184.629C56.2933 185.513 58.0878 186.586 59.6164 187.976C60.0152 188.355 60.3475 188.671 60.6798 189.05C61.0121 189.428 61.3444 189.807 61.6103 190.249C62.142 191.07 62.6072 192.018 62.6072 193.028C62.3414 192.649 62.0091 192.27 61.6768 192.018C61.4774 191.891 61.3444 191.702 61.1451 191.576C60.9457 191.449 60.7463 191.323 60.6134 191.197C59.8823 190.692 59.0183 190.313 58.2207 189.934C56.5592 189.176 54.8312 188.607 53.0367 188.165C51.3087 187.66 49.4477 187.281 47.6532 186.902C45.8588 186.523 43.9978 186.144 42.2033 185.892C38.6808 185.387 35.0919 185.26 31.6358 185.829C29.9078 186.081 28.1133 186.523 26.4518 187.218C24.5244 187.85 22.8628 188.734 21.2013 189.807Z" fill="white"/>
<path d="M205.767 287.508C204.172 290.476 202.909 293.318 202.244 296.16C201.513 299.002 201.38 301.844 201.846 304.622C201.979 305.317 202.045 306.012 202.311 306.707C202.444 307.401 202.71 308.096 202.909 308.791C203.374 310.18 203.972 311.569 204.637 312.896C204.969 313.59 205.368 314.285 205.701 314.98L206.83 317.064C207.229 317.759 207.628 318.453 208.027 319.148C208.492 319.843 208.891 320.537 209.289 321.295C206.099 319.78 203.441 317.569 201.181 314.853L200.384 313.843C200.118 313.464 199.918 313.085 199.652 312.769C199.121 312.075 198.788 311.254 198.39 310.433C198.19 310.054 198.057 309.612 197.858 309.17C197.659 308.791 197.526 308.349 197.393 307.906C197.127 307.085 196.927 306.138 196.795 305.317C196.263 301.78 196.861 297.991 198.523 294.833C199.32 293.255 200.384 291.802 201.58 290.539C202.776 289.339 204.172 288.202 205.767 287.508Z" fill="white"/>
<path d="M231.82 254.288C232.883 253.278 234.08 252.457 235.409 251.762C236.672 251.067 238.067 250.499 239.463 250.057C242.321 249.173 245.312 248.794 248.369 248.983C251.36 249.173 254.417 249.867 257.076 251.194C259.734 252.52 262.127 254.351 263.788 256.751C260.93 255.993 258.338 255.236 255.746 254.794C253.154 254.288 250.629 253.973 248.103 253.846C245.511 253.72 242.919 253.72 240.261 253.846C237.536 253.846 234.811 254.099 231.82 254.288Z" fill="white"/>
<path d="M208.957 409.143C210.02 408.133 211.35 407.375 212.745 406.744C214.141 406.112 215.603 405.67 217.132 405.417C220.189 404.849 223.379 404.912 226.437 405.67C227.234 405.859 227.965 406.112 228.696 406.365C229.427 406.68 230.158 406.933 230.823 407.312C232.219 408.007 233.482 408.828 234.678 409.775C237.004 411.67 238.931 414.006 239.995 416.722C237.27 415.333 234.877 414.006 232.485 412.933C232.219 412.806 231.886 412.68 231.554 412.554C231.222 412.427 230.956 412.301 230.624 412.175C230.025 411.985 229.427 411.67 228.829 411.48C227.633 411.038 226.37 410.659 225.107 410.343C222.648 409.712 220.056 409.333 217.398 409.207C214.739 408.954 211.948 408.954 208.957 409.143Z" fill="white"/>
<path d="M35.0919 411.291C35.0255 410.343 35.2913 409.396 35.5572 408.575C35.8895 407.691 36.3547 406.933 36.8864 406.175C38.0163 404.66 39.5449 403.396 41.3394 402.575C42.2034 402.133 43.2003 401.881 44.1973 401.628C44.729 401.565 45.1942 401.502 45.7259 401.502C45.9917 401.502 46.1911 401.439 46.457 401.502L47.188 401.565C49.1819 401.754 51.0429 402.575 52.4386 403.902C51.4416 404.281 50.5776 404.407 49.7801 404.66C49.3813 404.786 48.9825 404.912 48.5838 404.975C48.185 405.038 47.8527 405.228 47.4539 405.354C46.7228 405.544 46.0582 405.859 45.3936 406.049C44.7289 406.365 44.1308 406.554 43.4662 406.87C42.2034 407.438 40.9406 408.133 39.5449 408.828C38.2821 409.586 36.8864 410.407 35.0919 411.291Z" fill="white"/>
<path d="M110.016 317.129C112.622 311.818 107.885 304.477 99.4357 300.733C90.986 296.988 82.0231 298.257 79.4164 303.568C76.8098 308.878 81.5466 316.219 89.9963 319.964C98.4461 323.709 107.409 322.44 110.016 317.129Z" fill="#00AEEF"/>
<path d="M93.0611 304.56C93.3959 303.237 91.9314 301.768 89.7901 301.279C87.6487 300.789 85.6414 301.465 85.3065 302.787C84.9717 304.11 86.4362 305.579 88.5775 306.068C90.7189 306.558 92.7262 305.883 93.0611 304.56Z" fill="white"/>
<path d="M106.007 305.065C107.868 307.97 108.333 311.064 107.071 313.717C104.479 319.022 95.5061 320.285 86.9989 316.559C84.4069 315.422 82.1472 313.906 80.3527 312.264C82.2801 315.296 85.6032 318.138 89.9233 320.032C98.364 323.758 107.336 322.495 109.995 317.19C111.789 313.527 110.061 308.854 106.007 305.065Z" fill="#008FC4"/>
</svg>
