<svg width="339" height="487" viewBox="0 0 339 487" fill="none" xmlns="http://www.w3.org/2000/svg">
<path d="M189.293 486.572C107.056 486.572 40.3898 473.105 40.3898 456.493C40.3898 439.88 107.056 426.414 189.293 426.414C271.53 426.414 338.196 439.88 338.196 456.493C338.196 473.105 271.53 486.572 189.293 486.572Z" fill="#361900" fill-opacity="0.5"/>
<path d="M276.159 398.191C276.159 398.191 289.714 400.646 284.804 428.952C294.417 430.862 310.255 437.137 302.302 450.71C294.417 464.283 260.183 459.372 256.241 453.302C252.299 447.3 249.048 429.429 249.048 429.429L276.159 398.191Z" fill="#FFD444"/>
<path d="M256.241 453.302C252.299 447.3 249.048 429.429 249.048 429.429L276.159 398.191C276.159 398.191 289.714 400.646 284.804 428.952C284.804 428.952 275.606 442.593 267.652 445.458C272.424 449.141 290.268 457.872 303.823 447.572C303.477 448.595 302.993 449.619 302.371 450.778C294.348 464.351 260.183 459.372 256.241 453.302Z" fill="#F0A530"/>
<path d="M209.211 233.949C209.211 233.949 256.241 217.784 266.546 201.96C278.165 185.931 298.636 190.501 307.074 191.729C315.511 192.889 328.03 200.528 319.73 207.485C311.431 214.442 304.999 216.829 294.21 219.285C288.331 220.649 279.894 230.811 266.615 247.59C253.336 264.369 238.605 282.921 238.605 282.921C238.605 282.921 204.439 255.911 209.211 233.949Z" fill="#FFD444"/>
<path d="M266.546 201.96C269.865 197.322 273.946 194.457 278.303 192.684C274.983 195.003 270.972 198.209 270.142 200.937C268.69 205.711 266.615 213.282 256.863 218.739C247.181 224.264 230.513 230.88 230.374 239.815C230.236 248.818 244.967 267.711 244.967 267.711C244.967 267.711 267.721 242.816 280.378 230.607C276.436 235.04 271.871 240.77 266.546 247.522C253.198 264.301 238.535 282.853 238.535 282.853C238.535 282.853 204.37 255.911 209.211 233.949C209.211 233.949 256.241 217.784 266.546 201.96Z" fill="#F0A530"/>
<path d="M94.4736 53.2012H109.343V142.347H94.4736V53.2012Z" fill="#00AEEF"/>
<path d="M101.943 56.6115C97.8559 56.6115 94.5427 55.1152 94.5427 53.2694C94.5427 51.4236 97.8559 49.9273 101.943 49.9273C106.03 49.9273 109.343 51.4236 109.343 53.2694C109.343 55.1152 106.03 56.6115 101.943 56.6115Z" fill="#48C2EF"/>
<path d="M106.508 0C106.508 0 103.81 10.2992 107.545 19.7799C111.28 29.1925 114.53 47.0626 102.427 48.1539C90.3239 49.2452 89.0099 36.8316 91.7072 24.077C94.4736 11.2541 106.508 0 106.508 0Z" fill="#FFD444"/>
<path d="M102.22 18.8933C102.22 18.8933 102.635 28.1694 104.848 33.5577C107.545 40.1738 108.652 47.4719 101.666 48.1539C94.6811 48.7678 92.5372 40.1738 94.1279 32.8074C95.7186 25.4411 102.22 18.8933 102.22 18.8933Z" fill="#FF8B0D"/>
<path d="M109.343 57.3618V70.7986C104.917 73.5268 99.9374 75.8459 94.4737 77.4146V65.6831C100.214 63.7051 105.194 60.7722 109.343 57.3618Z" fill="#008FC4"/>
<path d="M94.5428 87.782C100.076 86.4179 105.055 84.2353 109.412 81.507V94.057C104.917 96.3079 99.8682 98.0812 94.5428 99.2407V87.782Z" fill="#008FC4"/>
<path d="M94.5428 110.904C100.007 109.745 105.055 107.767 109.412 105.243V117.588C104.848 119.703 99.8682 121.34 94.5428 122.295V110.904Z" fill="#008FC4"/>
<path d="M103.395 52.8602C102.773 51.155 102.15 49.3816 101.666 47.54C101.182 45.7667 100.767 43.9251 100.421 42.0835C100.145 40.2419 99.9373 38.3321 99.8681 36.4906C99.8681 34.5808 100.006 32.7392 100.421 30.8294C99.7989 32.6028 99.384 34.5126 99.1765 36.4224C98.969 38.3321 98.8998 40.2419 98.969 42.2199C99.0381 44.1297 99.1765 46.1077 99.4532 48.0175C99.7298 49.9273 100.006 51.8371 100.491 53.8151C100.698 54.6335 101.528 55.111 102.289 54.9064C103.119 54.7018 103.603 53.8833 103.395 53.133C103.464 52.9966 103.395 52.9284 103.395 52.8602Z" fill="#F91FA2"/>
<path d="M54.3613 90.4374L77.1765 176.695L62.7887 180.397L39.9735 94.1387L54.3613 90.4374Z" fill="#F1668C"/>
<path d="M40.0392 94.2189C39.5668 92.4329 42.3897 90.1604 46.3443 89.143C50.2989 88.1257 53.8877 88.7488 54.3601 90.5348C54.8325 92.3208 52.0096 94.5934 48.055 95.6107C44.1004 96.628 40.5117 96.0049 40.0392 94.2189Z" fill="#F48AA6"/>
<path d="M36.9317 35.7403C36.9317 35.7403 42.0496 51.0186 47.7899 60.9086C53.4611 70.7986 61.138 85.5312 44.6086 87.5774C28.0792 89.6236 25.5894 76.3915 28.5633 62.4091C31.5372 48.4268 36.9317 35.7403 36.9317 35.7403Z" fill="#FFD444"/>
<path d="M39.4216 61.5906C39.4216 61.5906 43.502 68.8888 46.4068 73.7997C50.0032 79.87 51.5938 86.6225 43.3637 87.6456C35.0644 88.6687 32.0905 80.6885 33.6121 73.7314C35.1336 66.7744 39.4216 61.5906 39.4216 61.5906Z" fill="#FF8B0D"/>
<path d="M55.3977 94.4663L58.8558 107.494C55.2594 111.245 51.0406 114.724 46.1993 117.588L43.2254 106.266C48.1358 102.856 52.2855 98.7633 55.3977 94.4663Z" fill="#D45376"/>
<path d="M48.8274 127.615C53.807 124.886 58.095 121.544 61.6222 117.861L64.8036 130.002C60.9998 133.344 56.6426 136.277 51.7322 138.664L48.8274 127.615Z" fill="#D45376"/>
<path d="M54.7061 149.987C59.6856 147.463 64.0427 144.325 67.6391 140.779L70.8205 152.715C66.9475 155.92 62.5212 158.717 57.6799 160.968L54.7061 149.987Z" fill="#D45376"/>
<path d="M48.4816 91.6016C47.4442 90.1011 46.4068 88.5323 45.5077 86.8954C44.6086 85.2584 43.7095 83.6214 42.9487 81.9163C42.188 80.2111 41.4964 78.4377 41.0123 76.6644C40.5281 74.8228 40.1823 72.9812 40.044 71.0714C39.9057 72.9812 39.9748 74.891 40.2515 76.8008C40.5281 78.7106 41.0122 80.6203 41.5655 82.4619C42.1188 84.3035 42.8104 86.1451 43.502 87.9184C44.2628 89.6918 45.0235 91.4652 45.9918 93.2386C46.4067 93.9889 47.3059 94.2617 48.0667 93.8524C48.8274 93.4432 49.1041 92.5565 48.6891 91.8062C48.5508 91.738 48.4816 91.6698 48.4816 91.6016Z" fill="#F91FA2"/>
<path d="M23.9091 162.098L79.1121 232.692L67.3369 241.648L12.1339 171.053L23.9091 162.098Z" fill="#00AEEF"/>
<path d="M12.2381 171.096C11.0951 169.635 12.7922 166.454 16.0287 163.993C19.2652 161.531 22.8155 160.721 23.9585 162.182C25.1015 163.644 23.4044 166.824 20.1679 169.286C16.9314 171.747 13.3811 172.558 12.2381 171.096Z" fill="#48C2EF"/>
<path d="M0 113.837C0 113.837 11.5498 124.886 15.9761 134.026C20.4716 143.166 25.0362 160.695 13.0023 162.673C0.968292 164.651 -1.2449 152.374 0.553284 139.483C2.28229 126.523 0 113.837 0 113.837Z" fill="#FFD444"/>
<path d="M4.49561 134.026C4.49561 134.026 11.7574 142.757 14.3164 148.009C17.4978 154.42 19.1577 161.65 12.2416 162.741C5.32556 163.832 2.55914 155.443 3.5274 148.009C4.63397 140.574 4.49561 134.026 4.49561 134.026Z" fill="#FF8B0D"/>
<path d="M26.4888 165.401L34.7881 176.042C32.9899 180.884 30.4309 185.727 27.1112 190.229L19.8494 180.952C23.1691 175.905 25.313 170.585 26.4888 165.401Z" fill="#008FC4"/>
<path d="M33.5432 198.413C37.0703 193.98 39.6985 189.274 41.4275 184.499L49.1735 194.457C46.9604 198.959 44.1248 203.392 40.5976 207.485L33.5432 198.413Z" fill="#008FC4"/>
<path d="M47.8593 216.693C51.4556 212.464 54.222 207.894 56.0894 203.256L63.697 213.01C61.4147 217.443 58.4409 221.672 54.8445 225.696L47.8593 216.693Z" fill="#008FC4"/>
<path d="M19.0192 165.469C18.3276 164.992 17.5669 164.378 16.8752 163.764C16.5294 163.423 16.1836 163.082 15.8378 162.809L14.8696 161.786C13.5555 160.354 12.449 158.853 11.4808 157.148C10.9966 156.33 10.5816 155.443 10.0975 154.625C9.88998 154.215 9.75168 153.738 9.54419 153.26C9.47504 153.056 9.33673 152.783 9.26758 152.578L9.06012 151.896C8.43768 150.055 8.16104 148.077 8.02271 146.167C7.95355 148.145 7.95352 150.123 8.29932 152.101L8.43762 152.851C8.50677 153.124 8.57599 153.329 8.64514 153.602C8.78348 154.079 8.85263 154.556 9.06012 155.034C9.40591 155.989 9.6825 156.944 10.0975 157.899C10.9274 159.74 11.8957 161.582 13.0714 163.219L13.9705 164.446C14.3163 164.856 14.593 165.265 14.9388 165.674C15.6304 166.493 16.322 167.175 17.1519 167.993C17.7744 168.539 18.7426 168.539 19.2959 167.925C19.8492 167.311 19.8492 166.356 19.2267 165.81C19.1576 165.538 19.1576 165.538 19.0192 165.469Z" fill="#F91FA2"/>
<path d="M213.361 214.237C213.361 214.237 206.307 233.54 227.193 259.117C248.08 284.695 293.795 314.228 294.417 373.977C294.694 401.124 277.266 444.367 226.847 453.029C166.332 463.396 75.2469 452.824 61.6914 407.126C46.8218 356.926 89.7016 312.864 89.7016 312.864C89.7016 312.864 29.6008 242.884 57.7493 158.308C83.1313 82.0527 169.582 97.672 169.582 97.672L213.361 214.237Z" fill="#6B411C"/>
<path d="M239.296 300.45C247.111 300.723 275.882 335.1 272.148 350.037C268.413 365.042 193.65 375.205 163.081 356.585C146.828 346.354 148.765 312.046 151.185 310.818C159.485 306.521 183.276 316.616 209.488 310.682C234.939 304.884 231.481 300.109 239.296 300.45Z" fill="#804C1F"/>
<path d="M193.789 230.334C185.074 236.404 174.631 241.042 161.56 234.767C148.488 228.561 149.18 215.738 135.071 211.918C120.893 208.03 89.0792 198.277 87.0043 174.063C85.2062 152.51 99.799 136.345 121.792 118.339C128.57 113.291 124.351 108.108 101.874 117.452L101.666 105.993C131.613 91.5334 169.513 97.7402 169.513 97.7402L213.292 214.374C213.292 214.374 211.909 218.193 212.185 224.605C206.929 225.15 199.114 226.651 193.789 230.334Z" fill="#F91FA2"/>
<path d="M268.551 386.527C268.759 383.458 265.716 381.275 262.811 382.298C250.708 386.732 214.537 397.509 175.737 383.594C171.657 381.957 171.657 421.04 195.932 429.975C220.208 438.91 256.656 423.154 264.332 402.624C267.237 394.848 268.344 389.801 268.551 386.527Z" fill="#804C1F"/>
<path d="M57.7493 158.24C75.6619 104.424 121.031 96.3761 146.137 96.3079L144.823 105.107C144.823 105.107 95.0269 106.812 74.3478 155.238C53.6688 203.733 71.6506 232.789 71.6506 232.789C71.6506 232.789 96.2718 227.81 108.237 246.158C117.297 260.072 113.631 278.897 113.631 278.897L101.874 288.446L128.086 312.932L132.374 307.339C132.374 307.339 145.03 318.594 135.555 341.647C126.08 364.701 107.891 361.905 100.975 356.38C94.0586 350.787 98.07 332.78 98.07 332.78C98.07 332.78 65.0804 380.798 87.3501 413.333C109.62 446.004 180.648 445.185 210.041 442.184C239.227 439.183 294.21 423.564 294.072 366.27C294.279 368.794 294.417 371.317 294.417 373.977C294.694 401.124 277.266 444.367 226.847 453.029C166.332 463.396 75.2469 452.824 61.6914 407.126C46.8218 356.926 89.7016 312.864 89.7016 312.864C89.7016 312.864 29.6008 242.884 57.7493 158.24Z" fill="#F91FA2"/>
<path d="M78.5402 147.081C74.6451 143.305 76.1985 135.518 82.0097 129.688C87.8209 123.859 95.6893 122.196 99.5843 125.972C103.479 129.749 101.926 137.536 96.1148 143.365C90.3036 149.194 82.4352 150.858 78.5402 147.081Z" fill="#F91FA2"/>
<path d="M58.3877 206.189C58.305 196.621 63.44 188.821 69.857 188.767C76.274 188.713 81.5431 196.426 81.6258 205.994C81.7085 215.562 76.5735 223.362 70.1565 223.416C63.7395 223.47 58.4704 215.757 58.3877 206.189Z" fill="#F91FA2"/>
<path d="M182.691 417.451C173.041 416.464 165.754 410.56 166.417 404.265C167.079 397.97 175.439 393.668 185.09 394.655C194.74 395.643 202.026 401.546 201.364 407.841C200.702 414.136 192.342 418.439 182.691 417.451Z" fill="#F91FA2"/>
<path d="M73.6967 390.929C71.1703 381.691 74.1449 372.866 80.3405 371.218C86.5361 369.57 93.6067 375.723 96.1331 384.961C98.6595 394.199 95.685 403.024 89.4894 404.672C83.2938 406.32 76.2231 400.167 73.6967 390.929Z" fill="#F91FA2"/>
<path d="M222.174 343.761C219.461 338.025 224.39 330.097 233.183 326.053C241.976 322.008 251.303 323.379 254.015 329.115C256.728 334.85 251.799 342.778 243.006 346.823C234.213 350.867 224.886 349.496 222.174 343.761Z" fill="#F91FA2"/>
<path d="M220.899 125.227C220.899 125.227 235.562 114.587 230.582 100.468C226.502 88.8733 213.153 83.7578 203.402 91.3288C195.033 97.4674 183.138 98.013 178.366 87.8502C173.594 77.6874 150.701 71.3442 138.598 85.0537C126.495 98.7633 141.987 116.02 141.987 116.02C141.987 116.02 115.568 133.958 106.093 146.781C96.6176 159.604 89.5632 179.452 108.997 192.275C128.432 205.098 145.86 206.734 153.053 219.489C160.245 232.244 176.982 236.882 190.676 225.423C200.843 216.829 231.343 224.536 246.627 202.369C267.237 172.358 222.352 137.232 220.899 125.227Z" fill="#FFD444"/>
<path d="M106.093 146.849C108.721 143.302 112.594 139.414 116.882 135.595C114.461 138.05 112.248 140.438 110.588 142.62C101.113 155.443 94.0586 175.291 113.493 188.114C132.927 200.937 150.355 202.574 157.548 215.329C164.81 228.015 178.642 232.789 192.336 221.331C201.119 213.964 227.608 218.466 243.792 205.916C227.885 223.786 200.22 217.375 190.607 225.491C176.913 236.95 160.245 232.312 152.984 219.557C145.722 206.871 128.362 205.166 108.928 192.343C89.5631 179.452 96.6176 159.604 106.093 146.849Z" fill="#F0A530"/>
<path d="M183.906 165.748C181.713 152.552 190.722 140.111 204.027 137.961C217.332 135.811 229.896 144.765 232.089 157.961C234.281 171.157 225.273 183.598 211.967 185.748C198.662 187.898 186.098 178.944 183.906 165.748Z" fill="#F0A530"/>
<path d="M164.049 179.656C149.115 179.656 137.008 167.716 137.008 152.988C137.008 138.259 149.115 126.319 164.049 126.319C178.984 126.319 191.091 138.259 191.091 152.988C191.091 167.716 178.984 179.656 164.049 179.656Z" fill="#F0A530"/>
<path d="M141.153 155.962C138.917 142.506 148.105 129.82 161.674 127.627C175.243 125.434 188.056 134.565 190.292 148.021C192.527 161.478 183.34 174.164 169.771 176.357C156.201 178.55 143.389 169.419 141.153 155.962Z" fill="white"/>
<path d="M186.243 163.869C184.192 151.527 192.613 139.893 205.051 137.883C217.49 135.873 229.236 144.248 231.286 156.589C233.337 168.931 224.916 180.565 212.477 182.575C200.039 184.585 188.293 176.21 186.243 163.869Z" fill="white"/>
<path d="M194.273 142.688C190.192 147.531 188.186 154.079 189.293 160.831C191.368 173.177 203.056 181.566 215.505 179.52C219.655 178.838 223.32 177.133 226.294 174.677C222.905 178.701 218.064 181.566 212.462 182.521C200.013 184.499 188.256 176.178 186.25 163.832C184.867 155.511 188.186 147.599 194.273 142.688Z" fill="#F0E5D8"/>
<path d="M200.596 159.465C199.366 152.068 204.084 145.148 211.132 144.009C218.181 142.87 224.891 147.943 226.12 155.34C227.349 162.737 222.632 169.658 215.583 170.797C208.535 171.936 201.825 166.862 200.596 159.465Z" fill="#F0A530"/>
<path d="M202.17 159.221C201.009 152.233 205.323 145.718 211.806 144.671C218.289 143.623 224.486 148.439 225.647 155.427C226.808 162.416 222.494 168.93 216.011 169.978C209.528 171.025 203.331 166.21 202.17 159.221Z" fill="#FFD444"/>
<path d="M210.262 157.716C209.669 154.147 211.877 150.82 215.194 150.284C218.511 149.748 221.68 152.206 222.273 155.775C222.866 159.343 220.658 162.671 217.341 163.207C214.024 163.743 210.855 161.285 210.262 157.716Z" fill="#F91FA2"/>
<path d="M217.712 154.137C217.465 152.65 218.365 151.267 219.722 151.048C221.078 150.828 222.379 151.856 222.626 153.343C222.873 154.83 221.973 156.213 220.616 156.432C219.259 156.651 217.959 155.624 217.712 154.137Z" fill="white"/>
<path d="M206.005 163.58C205.813 162.428 206.513 161.355 207.569 161.185C208.624 161.014 209.635 161.81 209.827 162.963C210.018 164.115 209.318 165.187 208.262 165.358C207.207 165.528 206.196 164.733 206.005 163.58Z" fill="white"/>
<path d="M141.153 155.962C138.917 142.506 148.105 129.82 161.674 127.627C175.243 125.434 188.056 134.565 190.292 148.021C192.527 161.478 183.34 174.164 169.771 176.357C156.201 178.55 143.389 169.419 141.153 155.962Z" fill="white"/>
<path d="M150.148 132.662C145.86 137.914 143.716 144.939 144.961 152.169C147.174 165.606 160.038 174.746 173.594 172.563C177.951 171.881 181.893 170.039 185.143 167.447C181.409 172.017 176.083 175.223 169.79 176.246C156.234 178.429 143.37 169.289 141.157 155.852C139.636 146.781 143.37 138.05 150.148 132.662Z" fill="#F0E5D8"/>
<path d="M157.414 151.057C156.067 142.953 161.056 135.402 168.557 134.189C176.058 132.977 183.23 138.564 184.576 146.667C185.923 154.771 180.934 162.323 173.433 163.535C165.932 164.747 158.76 159.161 157.414 151.057Z" fill="#F0A530"/>
<path d="M158.546 150.909C157.274 143.252 161.987 136.116 169.073 134.971C176.159 133.825 182.935 139.105 184.207 146.762C185.48 154.42 180.767 161.556 173.68 162.701C166.594 163.846 159.818 158.567 158.546 150.909Z" fill="#FFD444"/>
<path d="M167.285 149.255C166.637 145.352 169.044 141.714 172.663 141.129C176.281 140.545 179.74 143.235 180.389 147.138C181.037 151.041 178.63 154.679 175.011 155.264C171.393 155.848 167.934 153.158 167.285 149.255Z" fill="#F91FA2"/>
<path d="M175.539 145.306C175.274 143.708 176.25 142.219 177.72 141.982C179.19 141.744 180.597 142.847 180.863 144.446C181.128 146.044 180.152 147.533 178.682 147.77C177.212 148.008 175.805 146.905 175.539 145.306Z" fill="white"/>
<path d="M162.641 155.682C162.431 154.418 163.208 153.24 164.377 153.052C165.545 152.863 166.663 153.734 166.873 154.998C167.083 156.262 166.306 157.44 165.137 157.628C163.969 157.817 162.851 156.946 162.641 155.682Z" fill="white"/>
<path d="M133.964 149.918C134.034 152.169 133.619 154.352 132.512 155.852C131.406 157.353 129.815 158.308 127.878 158.922C125.942 159.536 124.005 159.808 122.069 159.399C120.132 159.058 118.265 157.967 116.536 156.398C117.158 158.649 118.957 160.627 121.308 161.582C123.66 162.605 126.495 162.468 128.777 161.718C129.4 161.513 129.953 161.241 130.506 161.036C130.783 160.9 131.06 160.695 131.336 160.559C131.613 160.354 131.89 160.218 132.166 160.013L132.927 159.399C133.135 159.194 133.342 158.922 133.55 158.649C133.757 158.376 133.964 158.103 134.103 157.83C134.241 157.558 134.449 157.285 134.587 156.944C135.14 155.716 135.279 154.42 135.14 153.26C135.002 152.033 134.656 150.873 133.964 149.918Z" fill="#F91FA2"/>
<path d="M236.599 183.681C232.449 187.023 227.816 189.274 223.113 190.979C218.41 192.684 213.568 193.639 208.727 194.116C207.482 194.184 206.307 194.321 205.062 194.389C203.817 194.457 202.641 194.457 201.396 194.457C198.975 194.389 196.486 194.389 194.065 194.116L192.267 193.98L190.4 193.775C189.155 193.639 187.979 193.434 186.734 193.23C185.489 193.093 184.313 192.82 183.068 192.616C181.824 192.411 180.648 192.138 179.472 191.865C178.296 191.593 177.052 191.32 175.876 191.047L172.349 190.024C169.997 189.342 167.646 188.523 165.433 187.637C163.15 186.818 160.937 185.795 158.655 184.772C157.548 184.226 156.442 183.681 155.404 183.067C154.298 182.521 153.26 181.907 152.154 181.293C147.866 178.77 143.785 175.905 139.912 172.631C136.039 169.357 132.374 165.742 128.985 161.65C129.538 164.31 130.506 166.834 131.613 169.221C132.789 171.676 134.172 173.995 135.693 176.246C137.284 178.497 138.944 180.68 140.811 182.658C141.78 183.681 142.748 184.636 143.716 185.59C144.684 186.545 145.791 187.432 146.828 188.387C151.116 191.934 155.888 194.935 161.006 197.322C163.565 198.55 166.193 199.505 168.821 200.459C170.135 200.869 171.519 201.278 172.833 201.687C174.216 202.028 175.53 202.437 176.913 202.71C179.68 203.256 182.377 203.802 185.143 204.143C186.527 204.279 187.91 204.484 189.293 204.552L191.368 204.688C192.059 204.757 192.751 204.688 193.443 204.757C199.045 204.825 204.716 204.211 210.249 202.847C215.712 201.346 220.969 199.095 225.602 195.89C227.885 194.253 230.029 192.479 231.896 190.433C233.832 188.319 235.492 186.136 236.599 183.681Z" fill="#FFB033"/>
<path d="M235.769 172.017C234.248 173.177 233.279 175.018 233.003 177.065C232.864 178.088 233.003 179.179 233.279 180.134C233.625 181.157 234.04 182.112 234.732 182.93C235.077 183.34 235.354 183.749 235.7 184.09L236.253 184.635C236.461 184.772 236.668 184.977 236.876 185.113C237.706 185.727 238.605 186.272 239.573 186.545C241.509 187.227 243.93 186.954 245.313 185.659C243.377 185.727 241.855 185.249 240.541 184.363C240.403 184.294 240.195 184.158 240.057 184.022C239.919 183.885 239.711 183.817 239.573 183.681C239.296 183.408 238.95 183.203 238.674 182.862C238.536 182.726 238.397 182.589 238.259 182.453L237.844 181.975C237.706 181.839 237.567 181.703 237.429 181.498L237.083 181.021C236.599 180.407 236.253 179.793 235.907 179.111C235.631 178.429 235.423 177.678 235.285 176.928C235.147 175.564 235.285 173.859 235.769 172.017Z" fill="#F91FA2"/>
<path d="M195.656 198.754C195.033 202.574 193.166 211.782 188.532 214.442C182.585 217.852 170.758 215.942 168.061 207.758C166.401 202.847 167.162 197.254 167.992 193.571C172.072 195.003 176.568 196.299 181.478 197.186C186.596 198.14 191.368 198.618 195.656 198.754Z" fill="#F1668C"/>
<path d="M167.992 193.571C168.891 193.912 169.859 194.253 170.827 194.525C170.343 197.936 170.205 202.096 171.449 205.848C173.87 213.146 183.553 215.465 189.846 213.419C189.431 213.828 189.016 214.169 188.532 214.374C182.584 217.784 170.758 215.874 168.061 207.689C166.401 202.778 167.162 197.186 167.992 193.571Z" fill="#DB5D7F"/>
<path d="M180.302 196.708L179.611 207.894L185.351 198.209L180.302 196.708Z" fill="#F91FA2"/>
<path d="M207.69 237.973C207.275 239.201 206.652 240.36 205.892 241.383C205.131 242.407 204.301 243.361 203.402 244.18C202.434 244.998 201.465 245.749 200.428 246.363C199.391 246.976 198.284 247.522 197.108 247.931C192.544 249.636 187.495 250.046 182.515 249.841C177.536 249.636 172.487 248.886 167.507 247.727L163.773 246.908C163.15 246.772 162.528 246.567 161.905 246.431L160.107 245.885C158.862 245.544 157.687 245.203 156.442 244.794L152.845 243.566C143.232 240.224 134.034 235.722 125.112 230.539C120.686 227.879 116.328 225.15 112.11 222.149C107.891 219.148 103.741 216.011 99.9373 212.396C101.182 214.715 102.842 216.761 104.502 218.807C105.332 219.83 106.231 220.785 107.13 221.808L109.896 224.673C113.7 228.356 117.781 231.766 122.069 234.972C130.714 241.179 140.258 246.431 150.494 249.909L154.367 251.205C155.681 251.614 156.995 251.956 158.309 252.297L160.246 252.774C160.868 252.91 161.56 253.115 162.251 253.251L166.263 254.002L168.268 254.343C168.96 254.479 169.582 254.547 170.274 254.616C171.588 254.82 172.971 254.888 174.354 255.025C175.046 255.093 175.738 255.093 176.429 255.161C177.121 255.161 177.812 255.229 178.504 255.229C179.887 255.229 181.27 255.229 182.654 255.161C185.42 255.025 188.186 254.684 190.884 254.002C193.581 253.32 196.278 252.365 198.699 250.932C199.944 250.25 201.05 249.432 202.157 248.545C203.194 247.659 204.163 246.635 204.993 245.476C205.822 244.385 206.514 243.157 206.998 241.929C207.206 240.565 207.621 239.269 207.69 237.973Z" fill="#F91FA2"/>
<path d="M236.392 283.672C235.631 284.626 234.801 285.513 233.902 286.332C233.487 286.741 233.003 287.15 232.518 287.491C232.034 287.9 231.55 288.241 231.066 288.582C230.098 289.265 229.06 289.878 228.092 290.492L226.502 291.311L225.741 291.72L224.911 292.061C220.623 294.039 216.127 295.403 211.494 296.358C206.86 297.381 202.157 297.79 197.385 298.131C195.033 298.268 192.613 298.336 190.261 298.336C187.841 298.336 185.489 298.336 183.069 298.2C173.524 297.859 163.911 296.767 154.367 295.198C149.595 294.38 144.823 293.493 140.12 292.334C137.768 291.788 135.417 291.174 133.134 290.424C131.959 290.083 130.852 289.674 129.676 289.196C128.57 288.787 127.463 288.241 126.426 287.491C127.117 288.514 128.155 289.333 129.123 290.083C130.161 290.833 131.198 291.447 132.305 292.129C134.449 293.357 136.731 294.448 139.013 295.471C143.578 297.449 148.35 299.018 153.122 300.382C162.735 303.042 172.694 304.611 182.723 304.952C187.771 305.089 192.82 305.02 197.8 304.475C199.045 304.338 200.29 304.134 201.534 303.929C202.779 303.724 204.024 303.588 205.269 303.315L209.004 302.497L212.669 301.405C217.511 299.837 222.214 297.722 226.432 294.789L227.193 294.244L227.954 293.63L229.406 292.402C230.305 291.515 231.274 290.697 232.104 289.742C234.04 288.037 235.562 285.991 236.392 283.672Z" fill="#F91FA2"/>
<path d="M279.755 349.15C279.617 350.787 279.202 352.356 278.58 353.856C278.026 355.357 277.335 356.789 276.505 358.153C274.845 360.813 272.77 363.201 270.349 365.179C265.508 369.203 259.699 371.727 253.613 373.5C247.526 375.273 241.164 376.228 234.801 376.774C231.619 377.047 228.369 377.183 225.118 377.319C221.868 377.388 218.617 377.524 215.367 377.456C202.434 377.388 189.5 376.16 176.982 373.159C170.689 371.658 164.533 369.68 158.516 367.225C155.473 365.997 152.569 364.633 149.595 363.201C148.142 362.519 146.69 361.7 145.238 360.95C143.785 360.2 142.333 359.381 140.88 358.631C145.86 362.996 151.255 366.884 157.064 370.158C162.874 373.432 169.098 376.092 175.53 378.206C188.394 382.299 201.949 384.072 215.367 384.072C217.026 384.072 218.756 384.072 220.415 384.004C222.075 384.004 223.735 383.867 225.464 383.799C228.784 383.594 232.173 383.39 235.492 382.981C238.881 382.571 242.201 382.026 245.521 381.275C248.84 380.525 252.16 379.57 255.342 378.411C258.523 377.183 261.704 375.751 264.609 373.977C267.583 372.204 270.28 370.021 272.632 367.498C274.983 364.974 276.92 362.109 278.165 358.904C279.409 355.834 280.101 352.424 279.755 349.15Z" fill="#F91FA2"/>
<path d="M99.799 286.604L108.237 277.397C108.237 277.397 111.902 237.973 75.1085 239.951C68.3999 240.497 42.8105 268.939 42.1188 283.603C41.4272 298.336 53.1154 305.225 78.1516 314.978C103.188 324.732 105.539 330.12 105.539 330.12C105.539 330.12 96.6176 353.924 111.833 355.084C127.048 356.244 140.88 331.348 135.486 314.706C132.028 304.134 125.458 301.474 120.547 299.837C115.706 298.2 99.799 286.604 99.799 286.604Z" fill="#FFD444"/>
<path d="M125.388 408.012C125.388 408.012 124.351 438.433 141.226 453.711C125.319 464.078 109.966 465.306 96.2718 461.964C84.5144 459.099 80.019 446.072 91.0847 435.432C98.969 427.861 113.216 429.429 113.216 429.429C113.216 429.429 112.11 415.788 125.388 408.012Z" fill="#FFD444"/>
<path d="M80.0427 144.924C76.1477 141.148 77.7011 133.361 83.5123 127.532C89.3234 121.703 97.1918 120.039 101.087 123.815C104.982 127.592 103.428 135.379 97.6173 141.208C91.8061 147.037 83.9377 148.701 80.0427 144.924Z" fill="#00AEEF"/>
<path d="M83.5462 127.478C84.791 126.251 86.1051 125.227 87.4884 124.341C87.4192 124.409 87.3501 124.409 87.3501 124.477C81.5406 130.275 80.019 138.05 83.892 141.87C86.935 144.871 92.4678 144.462 97.5166 141.324C91.7071 146.985 83.9611 148.622 80.0881 144.871C76.2151 141.12 77.7367 133.344 83.5462 127.478Z" fill="#008FC4"/>
<path d="M97.185 130.811C97.105 128.892 98.0611 127.294 99.3205 127.243C100.58 127.192 101.666 128.707 101.746 130.626C101.826 132.546 100.87 134.144 99.6105 134.195C98.351 134.246 97.2651 132.731 97.185 130.811Z" fill="white"/>
<path d="M59.9353 203.888C59.8526 194.32 64.9875 186.52 71.4045 186.466C77.8215 186.412 83.0907 194.124 83.1734 203.692C83.2561 213.26 78.121 221.061 71.704 221.115C65.287 221.169 60.018 213.456 59.9353 203.888Z" fill="#F1668C"/>
<path d="M65.011 189.478C63.6969 192.343 62.9362 195.753 62.9362 199.505C63.0053 209.122 68.2615 216.829 74.6935 216.761C77.045 216.761 79.2581 215.67 81.0563 213.828C78.9815 218.261 75.5235 221.194 71.6505 221.263C65.2185 221.331 59.9623 213.623 59.8931 204.006C59.8931 197.936 61.8987 192.616 65.011 189.478Z" fill="#D45376"/>
<path d="M73.6083 196.312C72.733 194.224 73.1396 192.075 74.5164 191.514C75.8931 190.953 77.7187 192.192 78.5939 194.281C79.4692 196.369 79.0626 198.518 77.6859 199.079C76.3091 199.64 74.4835 198.401 73.6083 196.312Z" fill="white"/>
<path d="M184.213 415.2C174.563 414.213 167.276 408.309 167.938 402.014C168.601 395.719 176.961 391.417 186.611 392.404C196.262 393.391 203.548 399.295 202.886 405.59C202.224 411.885 193.864 416.187 184.213 415.2Z" fill="#F1668C"/>
<path d="M191.946 401.948C189.759 401.272 188.348 399.587 188.793 398.185C189.239 396.784 191.373 396.195 193.56 396.871C195.747 397.547 197.158 399.232 196.713 400.634C196.267 402.035 194.133 402.624 191.946 401.948Z" fill="white"/>
<path d="M75.2406 388.685C72.7142 379.447 75.6888 370.623 81.8844 368.975C88.08 367.327 95.1506 373.48 97.6769 382.718C100.203 391.955 97.2288 400.78 91.0332 402.428C84.8376 404.076 77.767 397.923 75.2406 388.685Z" fill="#00AEEF"/>
<path d="M167.922 401.942C168.199 399.555 169.513 397.509 171.588 395.872C171.242 396.622 171.035 397.372 170.965 398.191C170.274 404.466 177.605 410.4 187.287 411.355C193.304 411.968 198.837 410.536 202.364 407.808C200.151 412.787 192.682 415.924 184.313 415.106C174.562 414.151 167.3 408.285 167.922 401.942Z" fill="#D45376"/>
<path d="M79.1199 370.294C77.1834 374.045 76.7684 379.434 78.2899 384.958C80.8489 394.235 87.9033 400.373 94.0586 398.736C95.0961 398.463 95.9951 397.986 96.825 397.372C95.5109 399.964 93.5745 401.806 91.0847 402.488C84.8602 404.125 77.8058 397.986 75.316 388.71C73.1028 380.934 74.9011 373.5 79.1199 370.294Z" fill="#008FC4"/>
<path d="M88.0053 379.625C87.3196 377.468 87.9159 375.363 89.3373 374.924C90.7588 374.484 92.467 375.876 93.1527 378.033C93.8384 380.19 93.2419 382.294 91.8205 382.734C90.399 383.173 88.691 381.781 88.0053 379.625Z" fill="white"/>
<path d="M236.599 182.93C235.7 183.885 234.732 184.772 233.694 185.59C232.657 186.409 231.619 187.159 230.582 187.909C228.438 189.342 226.156 190.569 223.804 191.593C219.17 193.707 214.191 195.003 209.142 195.753C206.652 196.094 204.093 196.299 201.534 196.435C198.975 196.503 196.486 196.503 193.927 196.299L191.99 196.162L190.054 195.958C188.809 195.821 187.495 195.617 186.25 195.48C185.005 195.344 183.76 195.071 182.446 194.866C181.201 194.662 179.956 194.321 178.711 194.116C173.732 193.025 168.891 191.524 164.188 189.615C161.836 188.66 159.554 187.568 157.272 186.409C155.058 185.249 152.845 183.953 150.701 182.589C146.482 179.793 142.402 176.655 138.736 173.04C136.869 171.267 135.14 169.357 133.48 167.379C132.65 166.356 131.889 165.333 131.129 164.31C130.368 163.287 129.607 162.195 128.916 161.104C129.746 163.56 130.921 165.947 132.304 168.198C133.619 170.517 135.14 172.631 136.8 174.745C138.46 176.792 140.258 178.838 142.194 180.679C144.131 182.521 146.137 184.294 148.281 185.931C152.569 189.205 157.271 191.934 162.182 194.184C164.672 195.344 167.162 196.231 169.72 197.117C171.035 197.527 172.279 197.936 173.593 198.277C174.908 198.618 176.222 198.959 177.536 199.232C182.792 200.391 188.186 201.141 193.581 201.278C198.975 201.483 204.439 201.005 209.765 199.846C215.09 198.686 220.208 196.708 224.842 193.912C227.124 192.479 229.337 190.91 231.274 189.137C233.418 187.159 235.216 185.181 236.599 182.93Z" fill="#F91FA2"/>
<path d="M98.1391 280.125C98.1391 280.125 101.39 273.986 101.32 267.438C101.182 257.958 93.5746 247.317 87.6267 241.111C111.072 247.59 108.306 277.397 108.306 277.397L99.8681 286.604C99.8681 286.604 115.775 298.2 120.686 299.837C125.596 301.474 132.166 304.134 135.624 314.706C136.731 318.184 137.007 322.004 136.662 325.892C135.901 305.634 119.371 301.064 119.371 301.064C119.371 301.064 117.089 300.996 106.853 293.903C96.6176 286.877 83.892 277.26 71.858 278.215C80.9872 273.713 98.1391 280.125 98.1391 280.125Z" fill="#F0A530"/>
<path d="M74.5554 240.087C69.3683 246.704 56.1586 264.71 55.1212 276.987C53.8763 292.266 78.29 302.087 92.3988 311.091C106.508 320.094 110.796 325.55 110.796 325.55C110.796 325.55 99.0383 345.126 109.482 354.675C97.5168 351.333 105.47 330.12 105.47 330.12C105.47 330.12 103.05 324.664 78.0826 314.978C53.0464 305.225 41.4274 298.336 42.0498 283.603C42.7414 269.28 67.1552 241.929 74.5554 240.087Z" fill="#F0A530"/>
<path d="M198.699 257.139C201.949 255.57 205.961 256.73 207.828 259.868C209.004 261.914 210.387 264.028 211.77 265.802C215.712 271.053 224.081 278.079 223.943 281.625C223.804 285.172 189.501 299.905 148.488 285.65C144.339 283.74 141.434 257.412 144.2 255.025C146.206 253.251 162.044 261.709 182.031 260.618C190.33 260.14 195.518 258.708 198.699 257.139Z" fill="#804C1F"/>
<path d="M116.882 135.527C128.155 125.5 141.987 116.02 141.987 116.02C141.987 116.02 126.633 98.8315 138.598 85.0537C144.892 77.8238 156.096 75.6412 163.773 77.9602C159.346 79.1198 146.413 82.0526 142.402 89.5554C136.178 101.355 150.563 111.04 150.079 115.883C149.664 120.726 134.034 121.34 116.882 135.527Z" fill="#F0A530"/>
<path d="M118.196 433.863C107.476 432.84 91.569 434.818 84.7221 448.8C84.5838 444.503 86.5201 439.797 91.0847 435.432C98.969 427.861 113.216 429.429 113.216 429.429C113.216 429.429 112.11 415.856 125.388 408.012C125.388 408.012 113.216 415.856 118.196 433.863Z" fill="#F0A530"/>
<path d="M86.5202 454.052C96.341 462.1 117.02 459.577 125.803 451.255C131.129 446.276 130.368 440.479 131.198 439.183C133.48 444.503 136.731 449.618 141.157 453.711C125.25 464.078 109.896 465.306 96.2026 461.964C90.9464 460.668 87.1426 457.394 85.5519 453.165C85.8977 453.438 86.1743 453.779 86.5202 454.052Z" fill="#F0A530"/>
<path d="M217.026 125.432C215.228 124.341 213.153 123.659 211.009 123.318C208.865 122.908 206.652 122.84 204.508 123.045C203.402 123.113 202.295 123.318 201.258 123.591C200.151 123.863 199.114 124.204 198.076 124.614C196.002 125.432 194.065 126.523 192.267 127.819L194.757 128.16C192.405 124.955 189.5 122.295 186.319 120.044C183.138 117.793 179.61 116.02 175.945 114.86C172.21 113.632 168.268 113.019 164.395 113.36C160.522 113.632 156.718 114.86 153.606 116.906C157.202 115.747 160.868 115.269 164.464 115.474C168.061 115.747 171.519 116.565 174.838 117.929C178.158 119.225 181.27 120.999 184.175 123.045C187.08 125.091 189.777 127.478 191.921 130.207L191.99 130.275C192.613 131.025 193.65 131.161 194.411 130.548C195.932 129.32 197.592 128.229 199.321 127.342C201.05 126.455 202.918 125.773 204.854 125.296C206.791 124.818 208.796 124.614 210.802 124.614C212.946 124.682 215.021 124.886 217.026 125.432Z" fill="#FFB033"/>
<path d="M208.451 93.3068C211.701 93.9889 214.675 94.8755 217.027 96.3079C218.202 97.0582 219.171 97.8766 220.07 98.7633L220.623 99.5136L220.9 99.8546C220.969 99.991 221.038 100.127 221.107 100.264C221.245 100.537 221.453 100.81 221.591 101.082C221.729 101.355 221.868 101.696 222.006 101.969C222.144 102.242 222.283 102.515 222.421 102.856L222.698 103.742C222.836 104.015 222.905 104.356 222.974 104.697C223.043 105.038 223.113 105.311 223.182 105.652C223.389 106.88 223.389 108.176 223.182 109.54C222.836 112.2 221.591 114.997 219.862 117.861C221.453 117.316 222.905 116.292 224.15 115.133C225.395 113.905 226.432 112.473 227.193 110.768C227.401 110.358 227.539 109.881 227.677 109.472C227.816 109.063 227.954 108.585 228.023 108.108C228.092 107.63 228.231 107.153 228.231 106.743V105.311C228.092 103.401 227.677 101.56 226.847 99.9228C226.156 98.2177 224.911 96.6489 223.528 95.353C222.075 94.1253 220.346 93.1704 218.617 92.6247C216.819 92.0791 215.021 91.9426 213.292 92.0791C211.632 92.2155 209.972 92.5565 208.451 93.3068Z" fill="white"/>
<path d="M182.723 96.9217C180.095 94.8755 177.882 92.8293 176.083 90.5785C175.184 89.4872 174.354 88.3277 173.594 87.0999C173.524 86.9635 173.386 86.8271 173.317 86.6225C173.248 86.4861 173.109 86.3497 172.971 86.1451L172.141 84.9855C171.865 84.5763 171.519 84.3035 171.173 83.8942C170.827 83.5532 170.481 83.2122 170.066 82.9393C168.545 81.7116 166.677 80.8931 164.81 80.4839C162.943 80.1429 161.006 80.1429 159.277 80.4839C157.479 80.8249 155.819 81.507 154.367 82.5301C152.914 83.485 151.67 84.7127 150.84 86.1451C152.43 85.5312 153.883 85.1219 155.404 84.8491C156.857 84.5763 158.309 84.4399 159.692 84.5763C162.459 84.7127 164.948 85.463 166.816 86.9635C167.3 87.3046 167.715 87.782 168.13 88.1912L168.752 88.8733C168.821 88.9415 168.96 89.1461 169.098 89.3508C169.236 89.5554 169.375 89.6918 169.513 89.8964C170.62 91.2606 171.865 92.4883 173.248 93.5114C174.631 94.5345 176.153 95.3529 177.743 95.8986C178.573 96.1714 179.334 96.4442 180.164 96.5807C180.994 96.8535 181.824 96.9217 182.723 96.9217Z" fill="white"/>
<path d="M122.549 153.651C122.13 152.007 123.382 150.28 125.346 149.793C127.309 149.307 129.241 150.246 129.659 151.89C130.078 153.534 128.826 155.261 126.862 155.747C124.899 156.234 122.968 155.295 122.549 153.651Z" fill="white"/>
<path d="M231.13 188.266C229.976 186.294 230.343 183.955 231.949 183.04C233.555 182.125 235.793 182.982 236.947 184.953C238.101 186.925 237.735 189.264 236.129 190.179C234.522 191.094 232.285 190.237 231.13 188.266Z" fill="white"/>
<path d="M316.134 204.006C315.304 202.096 313.921 200.391 312.261 199.027C310.601 197.663 308.665 196.572 306.59 195.821C302.44 194.253 297.875 194.048 293.657 194.662L292.066 194.935C291.513 195.003 291.029 195.139 290.475 195.276C289.438 195.549 288.47 195.753 287.432 196.094L285.911 196.572L284.389 197.117L282.937 197.731C282.453 197.936 281.969 198.209 281.484 198.413C279.617 199.368 277.75 200.528 276.159 202.028C275.744 202.437 275.398 202.779 275.052 203.188C274.707 203.597 274.361 204.006 274.084 204.484C273.531 205.37 273.047 206.393 273.047 207.485C273.323 207.076 273.669 206.666 274.015 206.393C274.222 206.257 274.361 206.052 274.568 205.916C274.776 205.78 274.983 205.643 275.122 205.507C275.882 204.961 276.781 204.552 277.611 204.143C279.34 203.324 281.139 202.71 283.006 202.233C284.804 201.687 286.741 201.278 288.608 200.869C290.475 200.459 292.412 200.05 294.279 199.777C297.945 199.232 301.679 199.095 305.276 199.709C307.074 199.982 308.941 200.459 310.67 201.21C312.676 201.892 314.405 202.847 316.134 204.006Z" fill="white"/>
<path d="M124.074 309.522C125.734 312.728 127.048 315.797 127.74 318.866C128.501 321.936 128.639 325.005 128.155 328.006C128.016 328.756 127.947 329.506 127.671 330.257C127.532 331.007 127.256 331.757 127.048 332.508C126.564 334.008 125.942 335.509 125.25 336.941C124.904 337.691 124.489 338.441 124.143 339.192L122.968 341.443C122.553 342.193 122.138 342.943 121.723 343.693C121.239 344.444 120.824 345.194 120.409 346.012C123.728 344.375 126.495 341.988 128.846 339.055L129.676 337.964C129.953 337.555 130.16 337.146 130.437 336.805C130.99 336.054 131.336 335.168 131.751 334.281C131.959 333.872 132.097 333.394 132.304 332.917C132.512 332.508 132.65 332.03 132.789 331.553C133.065 330.666 133.273 329.643 133.411 328.756C133.964 324.937 133.342 320.844 131.613 317.434C130.783 315.729 129.676 314.16 128.431 312.796C127.187 311.5 125.734 310.272 124.074 309.522Z" fill="white"/>
<path d="M96.9635 273.645C95.8569 272.554 94.612 271.667 93.2288 270.917C91.9147 270.167 90.4624 269.553 89.01 269.075C86.0361 268.121 82.9238 267.711 79.7424 267.916C76.6302 268.121 73.4488 268.871 70.6824 270.303C67.916 271.736 65.4261 273.714 63.6971 276.305C66.671 275.487 69.3683 274.668 72.0656 274.191C74.7628 273.645 77.3909 273.304 80.019 273.168C82.7163 273.031 85.4136 273.031 88.1801 273.168C91.0157 273.168 93.8513 273.441 96.9635 273.645Z" fill="white"/>
<path d="M120.755 440.888C119.648 439.797 118.265 438.978 116.813 438.296C115.36 437.614 113.839 437.137 112.248 436.864C109.067 436.25 105.747 436.318 102.565 437.137C101.736 437.341 100.975 437.614 100.214 437.887C99.4532 438.228 98.6924 438.501 98.0008 438.91C96.5485 439.66 95.2344 440.547 93.9895 441.57C91.5689 443.616 89.5633 446.14 88.4567 449.073C91.2923 447.572 93.782 446.14 96.2718 444.98C96.5485 444.844 96.8943 444.708 97.2401 444.571C97.5859 444.435 97.8625 444.298 98.2084 444.162C98.8308 443.957 99.4532 443.616 100.076 443.412C101.321 442.934 102.635 442.525 103.949 442.184C106.508 441.502 109.205 441.093 111.971 440.956C114.738 440.683 117.643 440.683 120.755 440.888Z" fill="white"/>
<path d="M301.679 443.207C301.748 442.184 301.472 441.161 301.195 440.274C300.849 439.319 300.365 438.501 299.812 437.682C298.636 436.046 297.045 434.681 295.178 433.795C294.279 433.317 293.242 433.044 292.204 432.772C291.651 432.703 291.167 432.635 290.614 432.635C290.337 432.635 290.129 432.567 289.853 432.635L289.092 432.703C287.017 432.908 285.081 433.795 283.628 435.227C284.666 435.636 285.565 435.773 286.395 436.046C286.81 436.182 287.225 436.318 287.64 436.387C288.055 436.455 288.4 436.659 288.815 436.796C289.576 437 290.268 437.341 290.959 437.546C291.651 437.887 292.273 438.092 292.965 438.433C294.279 439.047 295.593 439.797 297.046 440.547C298.36 441.366 299.812 442.252 301.679 443.207Z" fill="white"/>
<path d="M223.713 341.513C221.001 335.777 225.93 327.849 234.723 323.805C243.516 319.76 252.843 321.131 255.555 326.867C258.268 332.602 253.338 340.53 244.546 344.575C235.753 348.619 226.426 347.248 223.713 341.513Z" fill="#00AEEF"/>
<path d="M241.356 327.938C241.008 326.51 242.532 324.923 244.76 324.395C246.988 323.866 249.077 324.596 249.426 326.024C249.774 327.452 248.25 329.039 246.022 329.568C243.794 330.096 241.705 329.367 241.356 327.938Z" fill="white"/>
<path d="M227.885 328.483C225.948 331.621 225.464 334.963 226.778 337.828C229.475 343.557 238.812 344.921 247.665 340.897C250.362 339.669 252.713 338.032 254.581 336.259C252.575 339.533 249.117 342.602 244.622 344.648C235.838 348.673 226.501 347.309 223.735 341.579C221.868 337.623 223.666 332.576 227.885 328.483Z" fill="#008FC4"/>
</svg>
